<svg width="1440" height="69" viewBox="0 0 1440 69" fill="none" xmlns="http://www.w3.org/2000/svg">
<path d="M193.388 6.50403C190.746 15.0554 187.252 23.3806 183.996 31.7024C180.411 40.8617 176.938 50.0984 173.207 59.2019C172.779 60.2455 172 61.358 172 62.5214" stroke="black" stroke-width="8" stroke-linecap="round"/>
<path d="M183.204 39.4363C200.233 30.5164 217.125 21.7505 233.45 11.5974" stroke="black" stroke-width="8" stroke-linecap="round"/>
<path d="M200.179 32.3069C201.343 36.8389 202.291 41.5034 203.725 45.9624C204.706 49.0137 206.275 51.8322 207.648 54.7139" stroke="black" stroke-width="8" stroke-linecap="round"/>
<path d="M226.321 56.4109C234.194 43.3964 242.064 30.382 250.124 17.4816C252.081 14.3485 255.057 9.60338 257.31 6.18383C257.568 5.79262 258.153 4.64436 258.215 5.10875C258.909 10.3103 258.143 15.8726 258.479 21.1218C259.056 30.1305 260.55 39.1671 262.572 47.9611C263.331 51.2607 264.011 54.807 265.703 57.7688" stroke="black" stroke-width="8" stroke-linecap="round"/>
<path d="M245.332 39.7745L263.665 40.114" stroke="black" stroke-width="8" stroke-linecap="round"/>
<path d="M297.615 5.82489C294.13 19.172 290.335 32.5061 287.43 45.999C286.109 52.1351 285.737 58.3362 285.054 64.5583" stroke="black" stroke-width="8" stroke-linecap="round"/>
<path d="M285.732 44.1881C301.569 37.2452 317.258 30.097 332.923 22.7997" stroke="black" stroke-width="8" stroke-linecap="round"/>
<path d="M309.837 36.3796C320.134 45.4503 329.933 55.0194 342.089 61.5025" stroke="black" stroke-width="8" stroke-linecap="round"/>
<path d="M418.268 18.6038C427.283 15.7865 436.624 13.2675 445.954 11.7712C453.337 10.5872 459.154 11.8927 465.094 16.6898C468.161 19.1662 471.558 22.2743 471.771 26.5269C471.894 28.9677 470.855 31.9782 470.035 34.2275C468.045 39.689 464.61 43.6299 460.109 47.2027C452.946 52.8883 444.707 56.0389 435.583 56.5725C429.114 56.9507 422.722 57.2176 416.265 57.8633" stroke="black" stroke-width="8" stroke-linecap="round"/>
<path d="M446.712 37.8333C455.282 37.5727 463.844 37.2942 472.351 36.2308" stroke="black" stroke-width="8" stroke-linecap="round"/>
<path d="M487.574 13.7966C508.807 14.0349 530.039 14.2762 551.271 14.5978" stroke="black" stroke-width="8" stroke-linecap="round"/>
<path d="M525.631 17.4022C522.048 29.1219 518.494 40.851 515.215 52.6557" stroke="black" stroke-width="8" stroke-linecap="round"/>
<path d="M582.518 16.2002C576.116 16.5559 568.564 18.6908 562.955 21.7642C556.261 25.4322 555.497 34.0206 555.166 40.7708C555.004 44.0695 554.286 50.4777 557.28 53.1896C558.635 54.417 561.745 54.7569 563.423 54.9924C569.739 55.8789 576.526 55.7366 582.741 54.3024C594.902 51.4959 605.074 44.8101 607.578 31.9574C608.238 28.5733 608.184 25.854 605.086 23.8117C600.639 20.8803 594.82 20.401 589.729 19.4051" stroke="black" stroke-width="8" stroke-linecap="round"/>
<path d="M683.471 10.1921C677.337 19.7614 671.041 29.2601 665.199 39.0136C664.267 40.5684 662.711 42.908 662.328 44.8669C661.273 50.2494 677.764 48.6632 679.999 48.5614C687.091 48.2384 694.142 46.9633 700.831 44.5553C704.443 43.2548 709.906 41.2575 712.159 37.8785C715.452 32.9395 703.356 32.1257 701.075 31.8471C690.166 30.5147 679.182 30.3324 668.248 29.4212" stroke="black" stroke-width="8" stroke-linecap="round"/>
<path d="M688.679 9.79041H729.541" stroke="black" stroke-width="8" stroke-linecap="round"/>
<path d="M753.176 11.3934C746.553 20.9939 740.103 30.6127 734.013 40.5488C733.674 41.1026 730.404 46.3122 731.854 46.6469C733.928 47.1255 736.782 46.0284 738.731 45.6231C745.55 44.2054 752.386 43.2194 758.895 40.6155C760.236 40.0794 771.896 34.8849 766.841 33.004C762.057 31.2241 756.593 31.3425 751.573 31.0232C745.294 30.6238 739.038 30.222 732.745 30.222" stroke="black" stroke-width="8" stroke-linecap="round"/>
<path d="M790.033 8.58832C785.051 21.5552 779.555 34.3971 774.81 47.4472" stroke="black" stroke-width="8" stroke-linecap="round"/>
<path d="M790.432 46.2463C796.511 38.9141 802.523 31.5196 808.659 24.2351C811.268 21.1381 814.156 18.1085 817.495 15.7779C818.831 14.8449 820.928 13.3842 821.278 15.9337C821.626 18.4648 821.257 21.2057 821.456 23.7678C821.997 30.7096 823.36 37.2878 825.618 43.8649C826.453 46.296 826.864 49.1028 828.489 51.0536" stroke="black" stroke-width="8" stroke-linecap="round"/>
<path d="M863.343 18.2026C858.099 18.7271 850.895 21.9915 847.72 26.3038C846.134 28.4573 845.072 31.3253 844.226 33.8263C842.322 39.4512 844.043 44.0089 847.008 49.0272C848.987 52.3787 851.546 56.5465 855.91 56.8835C858.666 57.0964 862.194 56.008 864.835 55.3701C872.841 53.4356 881.597 50.7303 888.226 45.6665C892.025 42.7637 895.827 38.3552 897.039 33.6038C898.32 28.5819 894.093 26.2656 889.962 24.8572C877.39 20.5715 863.579 21.6865 850.524 22.2087" stroke="black" stroke-width="8" stroke-linecap="round"/>
<path d="M977.114 15.0521C970.91 24.4691 963.961 33.2768 957.486 42.4854C956.475 43.9234 954.012 49.4477 957.577 48.5563C967.921 45.9705 978.642 45.153 988.525 40.8421C990.4 40.0243 1004.95 32.4936 999.047 29.4306C996.208 27.9589 992.455 27.8465 989.347 27.6048C982.958 27.1079 976.49 26.9657 970.084 26.9657C967.957 26.9657 961.59 27.3766 963.717 27.3766C968.7 27.3766 973.679 26.4649 978.62 25.9159C985.315 25.172 992.89 24.0554 998.59 20.1645C999.704 19.4044 1004.05 16.4294 1002.88 14.4359C1001.27 11.6982 993.792 12.1704 991.287 11.9482C981.767 11.1037 972.278 10.166 962.735 9.71155" stroke="black" stroke-width="8" stroke-linecap="round"/>
<path d="M1070.12 17.5169C1078.86 13.4768 1088.63 7.26342 1098.6 6.7216C1100.7 6.6074 1105.04 6.36874 1106.27 8.63874C1107.23 10.431 1105.6 13.874 1104.94 15.5085C1098.8 30.8552 1085.2 39.8957 1071.44 47.8487C1068.46 49.5681 1065.37 51.372 1062.17 52.6643C1062.09 52.6996 1061.07 52.8469 1061.63 52.8469C1063.82 52.8469 1066.01 52.8348 1068.2 52.7556C1078.58 52.3806 1088.82 51.4622 1099.06 49.6517C1104.75 48.6438 1109.6 46.747 1114.89 44.6306" stroke="black" stroke-width="8" stroke-linecap="round"/>
<path d="M1142.34 10.1224C1137.41 13.6152 1132.99 18.4196 1130.11 23.7477C1126.99 29.5124 1124.81 34.5076 1128.33 40.6824C1130.75 44.9326 1135.29 46.3594 1139.65 47.1413C1147.98 48.6365 1159.43 43.8103 1165.71 38.4686C1170.58 34.33 1172.42 27.1117 1171.1 20.9633C1169.59 13.9526 1162.97 12.3136 1157.13 10.1224" stroke="black" stroke-width="8" stroke-linecap="round"/>
<path d="M1184.24 18.5953C1190.55 14.9116 1191.51 14.862 1197.51 10.2611C1198 9.88242 1200.33 7.50827 1200.93 8.73301C1201.72 10.3373 1200.45 15.0789 1200.31 15.7122C1199.62 18.9074 1198.53 22.7452 1197.69 25.9074C1195.79 33.0224 1193.14 40.7908 1192.36 48.3504" stroke="black" stroke-width="8" stroke-linecap="round"/>
<path d="M1217.17 10.45C1232.4 8.58093 1247.23 8.12092 1262.59 8.48726C1263.88 8.51821 1268.94 7.79569 1266.83 10.2218C1264.93 12.4144 1262.73 14.4365 1260.67 16.4753C1252.39 24.6723 1243.41 32.0343 1234.79 39.8461C1231.24 43.0611 1227.77 45.7273 1223.74 48.245" stroke="black" stroke-width="8" stroke-linecap="round"/>
</svg>
