<svg width="716" height="223" viewBox="0 0 716 223" fill="none" xmlns="http://www.w3.org/2000/svg">
<path d="M375.231 119.583C393.734 129.704 424.472 146.556 444.076 157.158C450.431 160.595 460.075 166.534 467.658 169.351C469.408 170.002 471.18 170.484 472.944 171.081C476.419 172.256 479.488 174.111 482.856 175.448C485.438 176.474 487.935 177.871 490.434 179.102C491.643 179.697 493.656 180.14 494.543 181.069" stroke="white" stroke-width="5" stroke-linecap="round"/>
<path d="M252.259 185.143C275.113 183.435 298.008 184.335 320.91 184.335C334.371 184.335 347.801 185.062 361.248 185.143C367.854 185.182 374.497 185.839 381.08 185.143C387.794 184.433 394.465 183.86 401.207 183.527C412.853 182.951 424.51 183.374 436.145 182.629C455.564 181.387 475.084 181.911 494.542 181.911" stroke="white" stroke-width="5" stroke-linecap="round"/>
<path d="M254.455 183.265C257.254 181.958 260.1 180.795 262.954 179.625C275.609 174.437 287.592 167.439 300.513 162.925C303.88 161.749 307.313 160.546 310.817 159.842" stroke="white" stroke-width="5" stroke-linecap="round"/>
<path d="M371.571 122.511C359.904 130.582 350.067 141.216 340.096 151.058" stroke="white" stroke-width="5" stroke-linecap="round"/>
<path d="M312.281 159.11C313.636 159.11 315.253 159.11 316.673 159.11" stroke="white" stroke-width="5" stroke-linecap="round"/>
<path d="M318.869 159.11C324.456 159.702 329.951 159.961 335.559 159.961C338.257 159.961 341.113 160.347 343.81 160.592C347.109 160.893 350.439 160.585 353.727 160.955C360 161.661 366.223 162.678 372.534 163.084C377.006 163.371 381.466 163.899 385.907 164.503C389.997 165.059 394.079 165.112 398.175 165.496C411.063 166.705 423.739 169.492 436.567 171.094C439.863 171.505 443.295 172.45 446.593 172.45C448.7 172.45 450.735 173.018 452.821 173.018" stroke="white" stroke-width="5" stroke-linecap="round"/>
<path d="M342.292 151.79C345.703 151.79 349.011 152.933 352.389 153.421C356.195 153.972 359.959 154.474 363.756 155.115C369.095 156.017 374.408 157.12 379.707 158.284C385.266 159.505 390.981 159.999 396.51 161.264C399.568 161.963 402.753 162.096 405.849 162.66C409.147 163.261 412.41 164.042 415.729 164.511C421.111 165.272 426.422 166.809 431.773 167.758C435.886 168.487 440.008 169.355 444.038 170.283C445.285 170.57 446.801 171.271 448.08 171.271C448.788 171.271 449.299 171.253 449.892 171.553" stroke="white" stroke-width="5" stroke-linecap="round"/>
<path d="M340.828 152.522V157.646" stroke="white" stroke-width="5" stroke-linecap="round"/>
<path d="M340.828 185.117C341.469 185.27 341.611 190.46 341.611 191.279C341.611 192.088 341.611 192.897 341.611 193.707C341.611 195.543 342.011 194.973 343.567 194.536C345.811 193.907 348.131 193.286 350.415 192.794C351.866 192.481 353.375 192.438 354.828 192.13C355.611 191.964 356.248 191.466 357.067 191.466C358.25 191.466 360.101 190.802 361.176 190.346C363.098 189.53 365.31 189.523 367.35 189.142C371.472 188.373 375.613 188.236 379.741 187.711C383.029 187.292 386.282 186.46 389.655 186.238C390.857 186.159 391.884 185.491 393.089 185.491C394.342 185.491 395.889 185.233 397.176 185.097C399.282 184.873 401.117 184.611 403.046 183.997" stroke="white" stroke-width="5" stroke-linecap="round"/>
<path d="M469.718 161.946C470.19 158.567 474.316 156.195 476.353 153.633C477.645 152.01 480.468 151.628 482.32 151.06C485.026 150.231 487.682 149.675 490.535 149.675C494.451 149.675 499.423 148.932 502.491 151.962C503.196 152.658 508.061 159.843 508.904 159.087C511.302 156.933 513.334 154.35 516.429 153.039C519.282 151.832 521.748 151.085 524.845 150.84C531.995 150.275 540.003 150.952 540.252 159.791C540.325 162.405 539.607 163.747 538.671 166.058C538.496 166.49 539.449 165.531 539.851 165.288C540.838 164.693 541.862 164.122 542.834 163.507C544.669 162.347 546.212 161.074 548.445 160.78C550.432 160.519 553.677 159.609 555.481 160.846C556.994 161.885 559.065 162.855 560.201 164.321C561.058 165.428 560.69 167.274 560.69 168.587C560.69 170.517 560.697 171.397 559.087 172.633C558.454 173.12 555.525 175.26 555.525 175.976C555.525 176.316 559.274 176.308 559.711 176.394C561.719 176.791 563.878 177.189 565.477 178.571C568.269 180.984 569.106 184.089 569.106 187.675C569.106 190.383 568.186 190.999 566.101 192.601C565.486 193.074 564.569 192.993 563.896 193.305C563.658 193.416 567.135 193.907 567.904 194.097C571.109 194.888 571.407 196.483 569.418 199.155C567.856 201.253 565.602 202.544 563.117 203.311C559.461 204.44 555.066 205.604 551.25 205.906C539.292 206.851 527.019 206.676 515.004 206.676C502.372 206.676 489.764 205.884 477.155 205.884C472.768 205.884 468.116 206.335 463.796 205.576C461.703 205.209 459.11 205.138 456.983 205.092C455.216 205.054 453.546 204.696 451.773 204.696C449.087 204.696 442.258 204.34 440.463 202.123C439.634 201.101 437.782 200.641 436.767 199.638C435.204 198.094 435.253 197.406 435.253 195.196C435.253 191.453 437.533 190.31 440.463 188.863" stroke="white" stroke-width="5" stroke-linecap="round"/>
<path d="M290.97 164.554C289.564 164.554 287.576 161.626 286.373 160.613C283.717 158.375 277.768 159.299 274.515 159.299C271.421 159.299 266.121 160.107 264.554 163.24C263.348 165.654 261.933 159.956 259.774 159.956C253.148 159.956 244.596 156.552 240.108 163.605C237.609 167.534 238.388 168.941 233.322 166.014C228.029 162.955 221.853 161.269 215.772 161.269C211.14 161.269 207.606 161.691 203.257 163.605C199.846 165.106 193.537 170.209 193.77 174.407C193.915 177.008 200.544 177.921 198.295 178.421C192.608 179.685 184.919 182.736 180.781 187.034C175.461 192.56 179.529 198.711 186.035 198.711C191.227 198.711 186.654 202.083 184.612 204.295C182.177 206.933 185.02 209.468 187.203 210.681C193.325 214.083 199.537 213.163 206.541 213.163C212.712 213.163 219.306 212.506 225.66 212.506C238.981 212.506 252.114 211.849 265.357 211.849C278.757 211.849 292.17 211.192 305.419 211.192C309.74 211.192 310.673 205.437 310.673 201.996C310.673 199.718 309.884 197.398 307.061 197.398C305.444 197.398 312.281 194.725 312.281 190.357" stroke="white" stroke-width="5" stroke-linecap="round"/>
<path d="M301.685 85.9125C298.338 87.5679 294.048 89.59 292.93 93.3207C292.725 94.0048 292.743 94.7611 293.469 95.0801C294.099 95.3572 295.797 96.3303 295.107 96.3303C289.603 96.3303 284.504 97.7626 282.63 103.322C281.237 107.455 284.135 107.265 287.101 108.438C287.304 108.518 285.838 109.91 285.674 110.082C284.91 110.879 284.831 111.642 284.831 112.675C284.831 115.029 287.689 115.662 289.466 116.541C292.336 117.96 296.822 117.166 300 117.166C304.206 117.166 308.411 117.166 312.617 117.166C318.477 117.166 324.19 116.332 329.916 116.332C333.641 116.332 334.973 114.14 334.973 110.684C334.973 107.339 331.508 107.165 328.746 107.165C327.414 107.165 328.603 106.958 329.05 106.146C329.632 105.091 330.404 104.355 330.759 103.137C331.234 101.505 331.824 98.8305 329.284 98.8305C327.34 98.8305 325.223 98.4138 323.175 98.4138C322.577 98.4138 321.863 98.3085 321.278 98.437C320.583 98.5899 320.646 99.9476 320.646 99.0389C320.646 97.9424 321.549 97.3312 321.817 96.3303C322.045 95.4764 321.911 94.4757 321.911 93.5985C321.911 91.8011 320.542 90.5689 318.633 90.4963C317.311 90.446 315.494 90.2323 314.232 90.5889C313.224 90.8738 312.091 91.0297 311.166 91.5381C310.418 91.949 310.189 92.6092 309.504 92.9966C309.487 93.0061 310.955 93.5662 310.955 91.5381C310.955 89.7672 310.171 89.831 308.942 88.7369C307.838 87.7542 304.086 85.9125 302.528 85.9125" stroke="white" stroke-width="5" stroke-linecap="round"/>
<path d="M183.454 32.2073C207.538 30.2128 231.631 28.4337 255.729 26.629" stroke="white" stroke-width="5" stroke-linecap="round"/>
<path d="M219.591 30.5095C218.987 36.2106 218.481 41.9296 217.408 47.5677C216.238 53.7183 214.69 59.8205 213.285 65.9195" stroke="white" stroke-width="5" stroke-linecap="round"/>
<path d="M268.583 27.5992C266.194 39.8662 263.162 52.0329 260.956 64.3297C260.629 66.1548 260.601 65.9196 261.98 65.9196C263.647 65.9196 265.314 65.8515 266.979 65.7849C279.057 65.3018 291.006 64.0098 303.022 62.7667" stroke="white" stroke-width="5" stroke-linecap="round"/>
<path d="M266.4 45.3041C278.654 44.0512 290.715 43.1971 303.023 42.8788" stroke="white" stroke-width="5" stroke-linecap="round"/>
<path d="M269.312 26.3864C286.845 26.3368 304.201 25.4635 321.699 24.4462" stroke="white" stroke-width="5" stroke-linecap="round"/>
<path d="M326.307 62.2816C330.249 54.5894 335.464 47.4773 339.889 40.0493C342.056 36.4116 344.475 32.9797 346.882 29.4991C348.038 27.826 349.819 26.0285 350.614 24.1499C350.83 23.6394 351.249 23.2261 351.53 22.7486C352.165 21.6688 352.923 23.3986 353.282 23.9074C358.6 31.4409 361.485 40.5713 367.254 47.7835C370.688 52.0749 372.632 56.9477 376.511 60.8264" stroke="white" stroke-width="5" stroke-linecap="round"/>
<path d="M400.468 21.1451C400.369 29.6123 398.319 38.0219 397.807 46.472C397.732 47.7091 397.603 48.9017 397.373 50.126C396.976 52.2475 396.563 54.1739 396.563 56.3607C396.563 56.9486 396.256 58.9048 396.951 58.9527C398.332 59.048 399.75 58.7502 401.107 58.5531C404.599 58.046 408.088 57.5434 411.59 57.1143C414.107 56.8059 416.608 56.3867 419.126 56.0866C419.976 55.9852 420.855 55.989 421.638 55.6755" stroke="white" stroke-width="5" stroke-linecap="round"/>
<path d="M401.085 37.9992C406.766 37.6204 412.463 37.5828 418.145 37.177" stroke="white" stroke-width="5" stroke-linecap="round"/>
<path d="M401.907 19.2952C417.601 19.2794 433.284 19.0511 448.975 18.8842" stroke="white" stroke-width="5" stroke-linecap="round"/>
<path d="M463.395 16.9965C462.856 20.523 462.276 24.0182 462.088 27.5831C461.94 30.3968 461.738 33.1818 461.421 35.9827C461.011 39.5995 460.259 43.341 460.259 46.9951C460.259 47.9692 460.259 48.9434 460.259 49.9175C460.259 50.7223 459.911 51.568 459.911 52.3948C459.911 52.8336 459.754 53.1897 459.737 53.6141C459.73 53.7751 459.582 54.0465 459.582 53.7109C459.582 53.0835 459.992 52.5416 460.259 52.0077" stroke="white" stroke-width="5" stroke-linecap="round"/>
<path d="M464.091 16.6481C465.883 16.3121 468.097 16.4215 469.8 16.4062C479.858 16.3158 489.916 16.4463 499.973 16.474" stroke="white" stroke-width="5" stroke-linecap="round"/>
<path d="M502.051 51.9067C512.106 40.6858 523.782 30.8132 535.916 21.9205C536.565 21.4454 543.338 16.5184 543.58 16.9122C544.548 18.4845 545.835 19.7884 546.76 21.4117C548.902 25.1741 550.405 29.1638 552.213 33.0818C554.645 38.3499 557.848 43.4002 561.165 48.1544C562.575 50.1756 564.325 51.769 565.871 53.6238" stroke="white" stroke-width="5" stroke-linecap="round"/>
<path d="M517.219 38.1696C522.858 38.1696 528.497 38.1789 534.136 38.1696C538.666 38.1621 543.116 37.6901 547.618 37.5972C549.797 37.5523 551.949 37.311 554.137 37.311" stroke="white" stroke-width="5" stroke-linecap="round"/>
</svg>
