<svg viewBox="0 0 680 170" xmlns="http://www.w3.org/2000/svg">
  <defs>
    <clipPath id="b0"><rect x="-50" y="0" width="800" height="10"/></clipPath>
    <clipPath id="b1"><rect x="-50" y="10" width="800" height="10"/></clipPath>
    <clipPath id="b2"><rect x="-50" y="20" width="800" height="10"/></clipPath>
    <clipPath id="b3"><rect x="-50" y="30" width="800" height="10"/></clipPath>
    <clipPath id="b4"><rect x="-50" y="40" width="800" height="10"/></clipPath>
    <clipPath id="b5"><rect x="-50" y="50" width="800" height="10"/></clipPath>
    <clipPath id="b6"><rect x="-50" y="60" width="800" height="10"/></clipPath>
    <clipPath id="b7"><rect x="-50" y="70" width="800" height="10"/></clipPath>
    <clipPath id="b8"><rect x="-50" y="80" width="800" height="10"/></clipPath>
    <clipPath id="b9"><rect x="-50" y="90" width="800" height="10"/></clipPath>
    <clipPath id="b10"><rect x="-50" y="100" width="800" height="10"/></clipPath>
    <clipPath id="b11"><rect x="-50" y="110" width="800" height="10"/></clipPath>
    <clipPath id="b12"><rect x="-50" y="120" width="800" height="10"/></clipPath>
    <clipPath id="b13"><rect x="-50" y="130" width="800" height="10"/></clipPath>
  </defs>

  <style>
    text {
      font-family: "Arial Black", "Impact", "Arial", sans-serif;
      font-size: 130px;
      font-weight: 900;
      fill: black;
      letter-spacing: 0.05em;
    }
  </style>

  <!-- Glitch bands: text sliced horizontally, each band shifted -->
  <g clip-path="url(#b0)"  transform="translate(5,0)"><text x="40" y="125">БИЛЕТЫ</text></g>
  <g clip-path="url(#b1)"  transform="translate(12,0)"><text x="40" y="125">БИЛЕТЫ</text></g>
  <g clip-path="url(#b2)"  transform="translate(8,0)"><text x="40" y="125">БИЛЕТЫ</text></g>
  <g clip-path="url(#b3)"  transform="translate(-4,0)"><text x="40" y="125">БИЛЕТЫ</text></g>
  <g clip-path="url(#b4)"  transform="translate(-12,0)"><text x="40" y="125">БИЛЕТЫ</text></g>
  <g clip-path="url(#b5)"  transform="translate(-8,0)"><text x="40" y="125">БИЛЕТЫ</text></g>
  <g clip-path="url(#b6)"  transform="translate(6,0)"><text x="40" y="125">БИЛЕТЫ</text></g>
  <g clip-path="url(#b7)"  transform="translate(14,0)"><text x="40" y="125">БИЛЕТЫ</text></g>
  <g clip-path="url(#b8)"  transform="translate(10,0)"><text x="40" y="125">БИЛЕТЫ</text></g>
  <g clip-path="url(#b9)"  transform="translate(-3,0)"><text x="40" y="125">БИЛЕТЫ</text></g>
  <g clip-path="url(#b10)" transform="translate(-13,0)"><text x="40" y="125">БИЛЕТЫ</text></g>
  <g clip-path="url(#b11)" transform="translate(-16,0)"><text x="40" y="125">БИЛЕТЫ</text></g>
  <g clip-path="url(#b12)" transform="translate(-9,0)"><text x="40" y="125">БИЛЕТЫ</text></g>
  <g clip-path="url(#b13)" transform="translate(4,0)"><text x="40" y="125">БИЛЕТЫ</text></g>

  <!-- Baseline -->
  <line x1="20" y1="142" x2="660" y2="142" stroke="black" stroke-width="4"/>
</svg>
