<svg width="1149" height="802" viewBox="0 0 1149 802" fill="none" xmlns="http://www.w3.org/2000/svg">
<path opacity="0.6" d="M36.4344 435.498C26.9511 430.323 25.3676 423.089 26.4707 413.707C27.3247 406.428 23.962 398.731 21.738 391.363C21.3109 389.946 17.6457 389.036 15.2971 388.216C0.547272 383.01 -3.90081 372.092 5.72484 361.294C13.2866 352.807 22.8055 345.528 30.9366 337.369C32.8938 335.4 33.0183 332.044 33.6588 329.27C34.584 325.273 34.3883 320.932 36.2031 317.278C38.4272 312.758 42.2525 308.806 45.3128 304.585C52.2162 295.039 57.4294 285.344 59.1019 273.739C61.2547 258.884 66.8593 244.386 70.7381 229.694C72.6418 222.46 73.5848 215.032 75.8445 207.887C77.0721 204.024 80.7551 200.743 82.2319 196.91C85.0609 189.571 87.8721 182.113 89.3133 174.507C91.1637 164.767 92.3913 154.863 92.4981 145.004C92.5693 139.261 90.8256 133.206 88.3703 127.776C69.9552 86.8779 58.408 44.4731 51.38 1.36728C46.0957 -31.1038 46.8252 -63.8881 54.7427 -96.3591C56.522 -103.653 55.6679 -111.573 54.725 -119.09C53.8709 -125.832 52.8568 -132.171 61.1302 -136.064C68.7275 -139.629 75.6488 -137.929 80.7907 -132.425C93.103 -119.225 111.821 -120.94 128.385 -117.584C166.141 -109.932 202.028 -98.4921 235.406 -81.563C249.498 -74.4184 264.675 -68.7953 279.122 -62.143C292.537 -55.9679 305.633 -49.3305 319.404 -42.6484C323.194 -47.5407 329.884 -49.0621 338.175 -49.3604C374.204 -50.6879 409.362 -45.005 444.84 -41.4701C463.984 -39.5609 483.681 -41.5148 503.128 -41.8877C530.297 -42.3948 557.519 -44.1698 584.634 -43.3643C617.354 -42.3799 649.95 -38.2334 682.67 -37.3534C719.127 -36.369 755.067 -42.0518 790.563 -48.5549C799.157 -50.1211 806.612 -55.6696 814.974 -58.608C820.098 -60.4128 825.987 -60.6962 831.521 -61.7104C833.638 -62.0982 836.129 -62.1877 837.784 -63.187C890.894 -95.7476 950.836 -114.825 1014.59 -126.548C1018.8 -127.324 1022.97 -129.755 1026.29 -132.231C1031.35 -135.99 1036.44 -138.346 1043.09 -135.915C1049.73 -133.484 1052.2 -129.084 1052.96 -123.013C1053.71 -117.107 1055.12 -110.738 1058.6 -105.711C1071.08 -87.738 1076.38 -68.0943 1079.31 -47.8837C1082.39 -26.7634 1085.76 -5.61317 1087.3 15.6116C1090.31 56.9574 1092.94 98.4225 1082.98 139.41C1079.28 154.624 1073.46 169.465 1068.64 184.485C1068.11 186.126 1066.74 188.453 1067.54 189.392C1075.77 199.013 1071.97 210.587 1075.26 220.909C1083.12 245.445 1091.59 269.847 1099.97 294.263C1105.42 310.148 1110.18 326.257 1117.02 341.709C1121.79 352.493 1129.33 362.442 1135.95 372.629C1154.43 401.103 1151.89 424.848 1127.09 449.414C1120.68 455.753 1121.09 462.48 1123.65 469.625C1126.2 476.71 1128.8 483.78 1131.57 490.805C1135.33 500.336 1130.77 508.092 1121.91 512.76C1111.64 518.175 1109.08 525.841 1108.03 534.597C1107.09 542.562 1103.19 547.887 1093.46 550.348C1090.2 551.168 1087.62 554.584 1085.29 557.179C1080.76 562.205 1075.99 567.217 1072.52 572.766C1069.8 577.121 1067.64 582.252 1067.43 587.099C1067.04 596.213 1064.32 603.477 1056.15 610.263C1050.88 614.633 1048.71 621.882 1046.03 628.102C1042.91 635.291 1039.25 641.541 1030.37 645.166C1027.52 646.329 1025.67 649.953 1024.28 652.772C1018.38 664.794 1008.61 670.626 992.47 668.986C972.828 667.002 955.587 672.163 939.823 682.231C927.689 689.987 914.7 696.818 901.712 703.545C898.598 705.156 893.242 706.051 890.129 704.917C879.863 701.218 870.913 703.977 862.284 707.736C837.659 718.445 813.355 729.677 788.713 740.341C781.435 743.489 773.322 745.278 765.814 748.068C761.312 749.753 756.829 751.796 752.968 754.347C737.221 764.773 721.956 775.736 706.031 785.983C691.602 795.26 675.055 799.854 656.622 800.003C629.097 800.212 601.555 801.42 574.03 801.256C524.959 800.958 479.535 790.786 443.95 760.776C429.005 748.172 411.106 745.935 392.139 743.071C373.083 740.192 353.743 736.836 335.808 730.959C321.272 726.201 308.835 717.073 295.046 710.51C289.139 707.706 282.253 706.185 275.652 704.589C261.454 701.158 246.953 700.025 232.132 699.622C223.236 699.383 215.924 694.342 211.529 687.093C205.07 676.399 198.327 665.809 191.459 655.293C190.267 653.444 187.456 652.355 186.175 650.535C181.638 644.062 176.905 637.603 173.347 630.757C171.247 626.715 169.663 623.314 163.863 622.27C160.785 621.718 158.152 619.481 155.074 618.944C151.124 618.243 146.64 617.587 142.922 618.497C135.342 620.331 128.332 623.926 120.717 625.552C102.302 629.504 89.2777 623.598 83.0326 608.802C80.9509 603.865 78.9048 600.658 71.5387 599.673C60.1516 598.152 52.8034 591.798 50.6327 581.879C48.9424 574.198 47.8749 567.128 36.6301 563.458C27.0223 560.326 25.7946 551.541 28.072 543.501C30.7943 533.896 34.4773 524.484 37.4308 514.923C38.8898 510.18 39.6726 505.288 40.7402 500.455C42.2881 493.46 42.4838 487.21 34.1392 482.273C31.1857 480.528 29.9224 475.8 29.4065 472.295C27.0401 456.037 27.8585 452.741 36.4344 435.498ZM694.804 695.983C707.241 713.628 726.849 718.341 747.755 720.966C753.43 721.682 759.942 723.576 764.764 722.04C774.817 718.818 786.364 716.7 791.719 707.005C792.68 705.26 795.634 704.126 797.911 703.082C804.868 699.861 811.896 696.714 819.013 693.715C835.079 686.959 844.064 675.713 846.769 661.274C850.683 640.303 848.459 619.839 836.77 600.553C833.567 595.273 830.346 589.948 827.856 584.415C825.009 578.105 828.585 571.826 835.844 568.992C843.032 566.188 850.648 568.306 854.669 574.496C857.338 578.613 859.437 582.968 862.035 587.129C871.358 602.03 877.158 617.691 877.194 634.665V671.655C880.574 671.327 885.04 670.149 889.239 670.626C899.79 671.849 907.281 667.509 915.946 663.362C939.236 652.235 962.989 641.123 991.581 643.898C993.164 644.047 995.94 643.734 996.314 642.988C1001.1 633.457 1008.86 626.014 1018.16 619.392C1020.1 618.019 1020 614.768 1021.28 612.56C1024.75 606.579 1028.62 600.747 1032.02 594.736C1034.46 590.44 1038.18 585.981 1038.29 581.551C1038.78 559.431 1060.08 547.23 1071.74 530.465C1072.13 529.884 1073.37 529.764 1073.89 529.197C1076.18 526.692 1079.55 524.35 1080.38 521.501C1083.69 510.255 1089.78 500.724 1102.11 493.967C1100.59 490.193 1099.35 486.42 1097.59 482.825C1088.03 463.39 1090.26 445.775 1107.73 429.815C1111.93 425.982 1114.77 420.672 1116.75 415.631C1121.54 403.49 1115.56 392.75 1108.42 382.638C1090.54 357.326 1078.37 330.329 1070.28 301.676C1065.95 286.418 1057.59 271.965 1051.45 258.063C1044.55 270.592 1038.32 283.375 1030.42 295.397C1028.13 298.887 1021.06 301.855 1016.15 301.9C1012.11 301.93 1006.95 297.903 1004.18 294.576C1000.46 290.072 999.498 283.927 995.637 279.542C990.318 273.516 984.41 267.027 976.92 263.403C965.604 257.914 956.512 251.307 951.975 241.224C945.445 226.711 938.488 212.153 934.201 197.118C927.689 174.283 915.43 155.131 892.549 141.155C889.933 139.56 887.531 137.665 885.254 135.711C879.222 130.58 878.688 123.331 883.83 118.305C889.132 113.099 897.637 112.19 904.523 116.724C931.603 134.518 953.132 155.355 960.889 184.724C964.697 199.117 971.048 213.048 976.831 227.024C978.521 231.096 981.279 235.526 985.122 238.166C995.691 245.385 1007.1 251.724 1018.34 258.511C1018.93 256.915 1020.12 254.2 1020.9 251.411C1029.89 218.94 1037.84 186.245 1048.12 154.072C1054.76 133.325 1059.19 112.443 1059.74 91.1736C1061.04 41.5199 1057.61 -7.94 1047.66 -56.9971C1044.37 -73.1954 1037.95 -88.2899 1024.48 -103.176C1011.54 -93.8235 923.454 -31.3275 892.673 -10.058C894.008 -10.3861 897.406 -11.2512 901.676 -12.355C901.676 -12.355 989.588 -35.1757 1022.54 -35.1757C1029 -35.1757 1031.74 -33.013 1032.43 -32.4313C1034.37 -30.7607 1034.89 -28.7173 1034.96 -28.4637C1035.44 -26.4352 1035.17 -24.9288 1034.37 -23.7952C1032.33 -20.9314 1027.13 -20.4541 1025.51 -20.305C1011.85 -19.0371 965.622 -9.04375 909.522 3.06764C900.751 4.96191 887.816 8.04944 872.301 12.9268C868.636 16.1336 864.632 20.1012 860.736 24.9189C855.576 31.2878 852.071 37.3435 849.669 42.37C851.608 41.8629 855.505 40.9232 860.255 39.4167C895.253 28.2599 930.251 17.133 965.177 5.85686C968.753 4.69345 972.063 4.27582 974.536 5.48396C976.315 6.34908 977.151 7.9301 977.756 8.9742C978.148 9.66031 979.802 12.6136 978.859 15.4028C977.792 18.535 973.878 20.1608 972.205 20.8171C937.617 34.5692 928.525 36.7469 928.525 36.7469C923.739 37.8954 931.354 36.195 878.404 53.2285C862.017 58.4937 848.335 62.8341 838.602 65.8918C836.77 67.801 833.834 71.0824 830.969 75.4974C826.059 83.0745 824.76 88.7274 817.75 104.135C814.885 110.43 813.159 114.009 808.693 115.725C805.455 116.962 801.63 117.142 797.715 116.083C789.887 113.979 786.826 107.446 788.534 98.0944C792.289 77.6601 803.32 59.6571 815.045 41.9226C841.253 2.30696 874.614 -32.4909 916.106 -61.6358C926.318 -68.8102 937.172 -75.3581 947.723 -82.1894C945.588 -82.965 944.235 -82.6369 942.901 -82.2938C909.825 -73.4937 880.948 -58.1009 853.067 -41.3955C827.5 -26.0922 802.751 -9.74478 785.795 12.9417C765.422 40.2073 753.11 69.8742 750.744 102.211C750.014 112.115 743.662 117.246 733.681 116.426C724.358 115.65 720.123 109.535 720.906 100.004C723.361 70.441 733.272 42.6087 749.338 16.4618C757.238 3.61954 767.468 -8.22339 776.667 -20.5585C775.92 -20.5585 774.479 -20.6778 773.091 -20.5436C747.025 -17.9632 721.03 -14.7564 694.876 -12.9367C676.283 -11.639 665.5 -1.83955 662.867 8.72063C658.099 27.7827 653.277 47.0684 651.783 66.4288C650.235 86.3857 652.53 106.551 653.295 126.613C653.633 135.458 649.203 140.812 640.395 141.633C632.353 142.379 625.966 137.859 624.382 129.82C623.279 124.211 622.568 118.529 622.087 112.846C618.44 69.9339 623.261 27.9169 640.36 -12.9665C585.132 -21.9606 529.122 -20.9314 472.471 -13.8913C484.748 2.1429 487.221 20.0266 488.36 38.1638C490.175 67.1149 493.377 96.1255 485.869 124.838C484.463 130.237 481.848 135.801 478.112 140.29C473.752 145.511 466.796 146.286 459.946 142.93C453.095 139.574 451.37 133.907 453.629 127.612C456.085 120.811 459.092 113.756 459.127 106.79C459.269 81.2995 459.038 55.7641 457.508 30.3034C455.711 0.144211 436.228 -17.292 401.48 -21.7518C396.818 -22.3484 392.103 -22.7959 387.388 -23.0942C373.439 -23.9443 359.472 -24.6752 345.505 -25.4657L344.455 -23.4969C357.906 -14.5028 365.806 -2.60025 371.82 10.4508C383.866 36.6574 399.38 61.9541 396.498 91.5018C395.519 101.525 391.819 107.67 382.371 108.192C373.048 108.714 367.55 103.002 366.749 92.9336C365.593 78.4507 366.749 63.744 359.027 49.9322C352.658 38.5367 348.014 26.4701 341.698 15.0448C338.406 9.10843 334.083 3.14223 328.585 -1.39209C307.857 -18.4554 285.225 -33.3859 258.145 -43.1555C246.793 -47.2424 236.171 -52.7611 225.193 -57.5937C223.699 -58.25 222.098 -58.6975 220.567 -59.2195C226.635 -53.7604 233.058 -48.9129 238.164 -43.2152C248.946 -31.1635 258.607 -18.3809 269.514 -6.4037C297.003 23.7555 313.586 57.5839 319.653 95.1113C320.703 101.585 315.507 107.76 308.319 108.848C299.992 110.116 292.751 106.194 290.651 99.6158C285.332 82.9551 279.691 66.384 274.514 49.6935C274.176 48.6047 273.606 46.0542 271.133 44.4284C268.891 42.9666 266.223 42.9219 265.048 42.9219C241.42 42.8473 217.738 41.311 194.146 42.3999C194.146 42.3999 186.175 42.7727 174.165 40.789C162.369 38.835 159.842 36.5679 159.095 34.6289C158.437 32.8987 158.97 30.8701 160.162 29.483C161.799 27.5738 164.966 26.843 168.809 26.7386C180.339 26.4104 191.851 25.6348 203.398 25.5155C222.133 25.3067 240.886 25.4558 260.582 25.4558L246.847 12.5539C229.766 12.897 216.03 13.4488 207.081 13.8665C203.095 14.0455 175.375 15.3431 142.637 13.2102C133.367 12.5987 123.119 11.6888 121.482 7.30367C120.112 3.61954 125.503 -0.691055 125.788 -0.899872C134.595 -7.761 150.412 -4.64366 156.337 -3.6145C171.976 -0.899872 196.37 0.785583 235.709 -3.24161C230.246 -11.8031 221.083 -23.8996 206.245 -35.474C193.452 -45.4525 181.905 -51.3143 170.179 -56.0873C141.641 -67.7065 112.977 -79.087 84.2247 -90.6167C83.6909 -88.6329 82.4632 -84.8742 81.6626 -81.0558C80.6306 -76.1934 79.5631 -71.2862 79.1716 -66.3641C75.9512 -25.7193 81.0043 14.3587 93.1208 53.6611C102.889 85.3118 114.525 116.545 125.005 147.047C133.278 143.766 142.174 139.216 151.818 136.651C166.052 132.862 178.133 127.09 187.812 117.425C200.48 104.777 217.756 100.362 236.741 99.8693C244.605 99.6605 250.37 104.165 251.33 110.459C252.291 116.634 247.861 122.019 240.335 123.809C238.627 124.211 236.901 124.823 235.175 124.823C222.275 124.898 213.095 130.461 204.928 138.247C193.701 148.926 179.325 155.534 163.116 159.636C157.832 160.978 151.462 162.261 148.099 165.438C134.328 178.519 120.699 192.107 114.774 209.185C110.54 221.431 108.938 234.303 106.002 246.862C104.882 251.694 104.223 256.795 101.821 261.181C91.2348 280.675 80.0435 299.946 69.2079 319.351C68.2293 321.111 67.2508 323.677 68.0514 325.213C72.1081 332.999 68.7809 339.308 62.8916 344.991C55.0096 352.613 46.7006 359.921 39.388 366.618C42.9108 371.347 47.3945 375.359 49.1204 380.072C52.3764 388.992 53.8353 398.359 56.5398 407.442C57.4294 410.41 59.1553 413.632 61.6996 415.75C68.3361 421.254 72.0191 427.31 68.7631 435.036C66.3256 440.838 63.1052 446.416 60.2584 452.099C56.9312 458.707 55.3299 464.673 63.0696 470.609C66.8237 473.488 69.6705 478.559 70.1331 482.855C71.1473 492.162 70.4356 501.604 70.2933 510.986C70.1509 520.367 69.5104 529.168 61.1836 536.551C59.3154 538.206 58.8528 543.979 59.9559 544.486C73.4425 550.691 75.3107 561.967 78.887 572.661C79.4029 574.212 82.1074 576.196 83.9578 576.33C95.4338 577.151 101.999 582.908 106.465 591.037C108.404 594.572 110.13 598.197 112.283 602.433C118.653 600.121 124.578 598.003 130.449 595.825C148.064 589.322 178.933 594.677 192.1 606.654C193.861 608.265 195.534 610.174 196.423 612.202C200.853 622.3 203.368 627.26 212.845 637.18C214.199 638.597 216.956 642.391 217.774 643.704C223.218 652.355 228.876 660.916 234.054 669.672C236.741 674.236 239.819 676.041 246.402 675.295C252.629 674.594 259.372 675.414 265.564 676.697C284.264 680.545 303.871 682.469 319.635 693.179C320.489 693.76 321.806 693.909 322.927 694.178C331.378 696.296 340.523 697.519 343.335 706.394C343.619 707.318 345.434 708.273 346.751 708.556C366.02 712.703 385.307 716.73 405.394 720.966C405.021 718.624 405.127 718.057 404.843 717.714C403.49 716.089 401.996 714.538 400.644 712.927C390.982 701.412 383.759 689.211 384.488 674.564C384.862 667.136 384.488 659.678 384.631 652.235C384.88 636.872 389.879 622.912 402.69 611.501C405.038 609.413 408.383 606.505 411.052 606.654C416.461 606.952 422.991 607.922 426.763 610.755C431.994 614.693 430.855 620.331 427.172 625.701C422.564 632.413 417.119 639.289 415.322 646.657C413.169 655.487 414.682 664.929 414.219 674.087C413.757 683.319 418.4 690.986 424.432 698.101C433.506 708.78 442.936 719.236 452.437 729.647C453.825 731.168 456.44 732.69 458.593 732.809C473.628 733.57 488.698 734.36 503.75 734.33C521.81 734.301 539.869 733.764 557.892 732.899C587.57 731.482 615.095 723.397 640.698 711.346C650.039 706.946 660.074 701.233 656.836 688.764C654.807 680.933 645.164 670.984 635.485 670.373C627.016 669.836 619.383 668.106 613.654 662.095C602.782 650.699 591.965 639.214 580.24 628.46C571.486 620.421 567.803 611.277 567.251 600.837C566.86 593.349 571.735 588.114 579.973 587.099C587.677 586.16 594.296 590.784 596.217 597.898C597.356 602.149 598.139 607.071 601.181 610.278C612.479 622.196 624.649 633.516 636.624 645.195C644.826 635.187 648.224 633.74 662.565 632.696C670.482 632.114 678.524 631.548 686.211 629.982C703.185 626.551 719.963 622.479 737.702 618.482C730.407 596.78 724.962 576.763 716.867 557.522C707.651 535.626 696.815 514.267 692.741 491.073C689.36 471.832 687.492 452.621 693.986 433.619C701.744 410.947 716.582 393.183 743.449 383.354C769.497 373.823 796.666 372.764 824.315 374.106C833.371 374.539 838.424 379.804 838.229 387.619C838.175 389.812 837.908 392.124 838.62 394.167C844.794 411.857 842.356 429.025 833.656 445.581C820.685 470.281 786.613 487.911 754.64 485.704C743.235 484.913 732.097 481.274 719.376 478.619C722.863 490.432 725.407 503.304 730.514 515.43C742.933 544.993 756.099 574.317 763.607 605.162C765.671 613.664 769.942 622.061 759.48 628.937C758.786 629.4 758.75 630.757 758.697 631.697C757.878 643.853 755.032 647.537 741.741 650.759C733.218 652.832 727.56 657.307 724.945 663.84C719.465 677.472 714.274 687.716 697.87 694.711L694.804 695.983ZM487.559 758.911C510.102 768.8 532.307 774.498 554.921 775.646C586.129 777.227 617.586 774.737 648.882 775.661C681.852 776.646 700.32 756.689 722.151 744.428L675.678 720.176C622.692 758.404 557.038 760.269 487.542 758.896L487.559 758.911ZM720.514 449.012C728.521 452.278 735.602 455.008 742.506 458.05C752.185 462.316 762.842 463.853 772.415 460.183C792.609 452.427 808.8 441.33 811.789 420.806C814.529 402.028 810.988 395.346 786.649 399.567C786.417 399.611 786.222 399.82 786.026 399.955C792.751 411.693 791.221 422.686 780.848 432.038C764.088 447.147 744.392 447.744 722.934 439.108L720.514 448.997V449.012ZM476.795 478.485C470.265 495.458 462.063 509.464 446.548 519.726C434.591 527.631 421.55 531.718 406.07 532.583C345.31 535.984 296.167 499.68 280.243 457.424C276.613 447.789 273.055 438.094 270.51 428.249C266.703 413.528 272.165 406.95 289.851 406.309C326.734 404.996 363.725 402.967 400.537 404.131C431.958 405.13 457.668 418.614 477.275 439.451C493.36 456.544 509.426 473.652 524.994 491.088C529.14 495.727 532.04 501.35 534.406 506.854C538.196 515.639 541.096 524.693 544.281 533.657C546.594 540.19 543.196 546.828 536.435 549.348C529.265 552.018 520.511 549.602 517.13 542.994C513.323 535.551 511.081 527.557 507.54 519.995C504.587 513.7 501.419 507.331 497.114 501.634C491.349 494.012 484.392 487.001 476.813 478.47L476.795 478.485ZM322.019 429.263L301.38 430.949C305.152 440.42 307.839 449.593 312.358 458.11C326.361 484.481 350.274 501.499 384.221 507.063C415.767 512.224 433.542 503.379 445.409 478.38C448.452 471.952 451.352 465.463 453.789 458.871C454.394 457.23 453.594 454.665 452.33 453.188C443.221 442.523 429.734 437.169 416.87 432.172C413.419 442.27 410.768 451.875 406.853 461.108C398.26 481.408 370.486 489.313 348.975 477.187C329.332 466.105 320.952 449.787 322.019 429.293V429.263ZM143.847 496.339C148.402 522.918 167.671 541.354 192.082 556.91C195.783 559.267 199.644 561.743 202.348 564.816C208.522 571.856 215.621 573.869 223.414 570.006C230.424 566.531 233.36 558.999 228.022 552.6C222.685 546.201 215.835 541.443 209.02 536.506C194.43 525.916 179.165 515.55 175.037 498.8C172.866 489.985 173.186 480.647 173.204 471.549C173.24 458.17 176.994 445.76 187.545 435.021C190.409 432.112 192.829 426.922 191.673 423.73C190.32 419.956 185.552 416.033 181.068 414.258C174.378 411.618 168.792 415.064 164.29 419.598C147.049 436.975 142.815 457.558 142.69 479.29C143.046 484.973 142.868 490.715 143.829 496.324L143.847 496.339ZM1017.63 368.02C1017.66 360.473 1012.7 355.342 1004.55 354.686C996.403 354.03 989.944 358.4 988.823 365.694C987.951 371.317 987.097 377.014 987.222 382.653C987.631 401.222 989.072 419.792 989.037 438.362C989.001 460.586 984.019 482.005 970.177 501.455C965.462 508.092 967.401 515.147 974.696 518.906C981.297 522.306 990.798 520.934 994.944 514.923C1000.07 507.495 1004.89 499.739 1008.2 491.64C1019.35 464.27 1021.4 436.02 1017.61 407.845C1017.61 394.272 1017.58 381.146 1017.61 368.035L1017.63 368.02ZM779.799 536.327C832.268 529.54 870.006 507.63 886.054 463.495C888.545 456.663 885.129 450.399 877.389 447.774C870.273 445.357 862.515 447.953 859.01 454.143C856.11 459.274 853.637 464.568 850.826 469.729C841.574 486.733 827.18 499.501 805.455 504.661C790.296 508.256 774.55 510.255 758.946 512.373C750.904 513.462 745.388 517.623 745.299 524.469C745.175 532.807 752.452 537.461 767.664 537.58C770.422 537.297 775.137 536.924 779.799 536.327ZM693.79 271.084C692.064 264.954 685.766 262.568 678.649 263.194C671.069 263.865 665.465 267.803 665.767 274.262C666.123 281.525 667.938 288.864 670.304 295.889C676.461 314.131 681.905 332.164 672.795 350.927C669.522 357.684 673.311 364.366 680.677 367.021C688.292 369.751 697.349 367.111 700.16 359.981C703.879 350.495 706.079 346.96 707.347 334.785C709.775 311.47 699.306 290.654 693.79 271.084ZM390.609 295.442C391.321 320.067 394.683 344.171 411.052 365.694C416.248 372.525 423.169 375.105 430.997 371.958C438.826 368.811 441.495 362.174 437.759 355.089C434.912 349.689 431.709 344.424 428.507 339.159C420.429 325.824 422.244 311.207 420.731 297.052C419.788 288.163 414.415 282.629 405.626 282.689C396.836 282.748 390.395 288.222 390.609 295.456V295.442ZM785.35 332.283C762.06 335.057 742.897 345.095 724.464 356.342C717.65 360.503 716.529 368.035 721.03 373.465C725.514 378.879 734.428 380.505 741.456 376.433C757.789 366.961 774.318 358.236 794.637 355.76C801.79 354.88 805.064 349.764 805.793 344.424C805.437 335.355 797.093 330.881 785.35 332.283ZM290.491 372.421C280.439 373.673 275.225 379.207 276.329 386.352C277.467 393.735 284.673 397.27 295.455 396.539C313.977 395.271 332.535 394.272 351.074 393.436C360.824 393.004 367.586 388.514 367.995 381.444C368.404 374.374 362.105 368.93 352.124 368.363C345.078 367.976 337.961 368.289 330.844 368.289C317.34 369.646 303.853 370.75 290.474 372.421H290.491ZM564.049 174.268C563.177 192.927 566.575 211.214 573.087 229.008C575.293 235.019 581.592 237.748 589.26 236.749C596.271 235.839 602.249 229.858 601.324 223.966C598.655 206.888 595.772 189.825 592.285 172.851C591.129 167.273 585.809 164.2 581.36 164.051C571.183 163.708 564.333 168.197 564.049 174.268ZM531.344 206.969C528.426 193.918 527.895 188.348 524.372 175.416C522.503 168.57 514.266 165.393 506.223 167.108C499.498 168.555 493.929 174.969 495.762 180.711C500.69 196.119 502.914 211.601 501.633 227.576C501.117 234.154 506.686 237.838 514.354 238.569C522.183 239.329 528.944 235.466 530.225 229.455C531.275 224.608 531.344 221.512 532.02 216.605C532.02 216.605 532.112 214.013 532.02 212.354C531.904 210.242 531.344 206.969 531.344 206.969ZM551.63 639.796C543.534 639.363 536.186 644.972 535.794 651.878C535.438 658.232 542.111 664.153 549.993 664.451C558.408 664.764 565.632 659.335 565.881 652.519C566.112 646.135 559.476 640.214 551.63 639.796ZM827.856 633.779C819.849 633.346 812.465 639.044 812.127 645.905C811.807 652.378 818.266 658.136 826.219 658.464C834.172 658.792 841.787 653.318 842.09 646.531C842.374 640.252 835.613 634.196 827.856 633.779ZM490.922 642.361C491.26 649.282 497.754 654.279 506.063 653.995C514.372 653.712 520.173 648.432 520.03 641.347C519.888 634.65 513.109 629.027 505.316 629.146C496.936 629.281 490.584 635.127 490.922 642.361ZM793.659 617.975C793.481 624.597 800.028 630.295 808.106 630.504C816.753 630.727 823.621 625.283 823.586 618.213C823.55 611.143 817.038 606.087 808.853 606.042C800.669 605.997 793.837 611.456 793.659 617.975ZM480.638 671.999C480.211 665.689 472.72 659.827 465.408 660.096C457.846 660.379 450.889 666.45 450.889 672.774C450.889 679.337 458.487 685.467 466.386 685.258C474.286 685.05 481.101 678.919 480.638 671.999ZM559.12 672.849C551.718 672.819 544.37 678.964 544.281 685.258C544.192 692.284 551.167 698.16 559.423 698.011C566.984 697.877 574.083 691.702 574.012 685.348C573.941 678.994 566.664 672.879 559.102 672.849H559.12ZM510.707 664.049C502.416 663.9 495.228 669.776 495.37 676.578C495.512 682.991 502.683 688.838 510.387 688.794C518.144 688.764 524.941 682.962 524.994 676.354C525.048 669.239 519.212 664.213 510.689 664.049H510.707ZM467.774 619.063C459.981 619.108 453.007 624.925 452.989 631.384C452.989 638.215 460.195 643.987 468.415 643.734C476.635 643.48 482.595 638.23 482.488 631.234C482.382 624.239 475.656 619.019 467.756 619.078L467.774 619.063Z" fill="url(#paint0_linear_2008_219)"/>
<defs>
<linearGradient id="paint0_linear_2008_219" x1="1093.22" y1="802.667" x2="1093.22" y2="-729.985" gradientUnits="userSpaceOnUse">
<stop stop-color="#D9ECFF"/>
<stop offset="1" stop-color="#3DA1FF"/>
</linearGradient>
</defs>
</svg>
