<svg width="716" height="153" viewBox="0 0 716 153" fill="none" xmlns="http://www.w3.org/2000/svg">
<path d="M240.549 37.6023C241.257 45.953 243.668 54.1269 244.712 62.4619C246.052 73.1603 246.274 83.9033 249.907 94.3494C251.58 99.161 253.899 103.863 255.28 108.736C255.602 109.872 255.92 111.098 255.92 112.264" stroke="white" stroke-width="5" stroke-linecap="round"/>
<path d="M241.281 36.5763C249.736 36.5763 258.191 36.5763 266.646 36.5763C267.512 36.5763 267.781 36.5812 268.185 37.227C269.58 39.4579 271.034 41.601 272.241 43.9144C273.963 47.217 275.339 50.6554 277.202 53.9107C278.501 56.1829 280.506 58.193 281.673 60.515C284.066 65.273 285.905 70.1695 288.354 74.9142C289.381 76.9033 290.582 78.6538 291.468 80.6877C292.454 82.95 292.872 85.2995 294.256 87.4165C295.898 89.9272 295.902 92.8042 297.823 95.253C298.623 96.2723 298.684 94.7156 298.819 94.2285C299.533 91.6536 300.29 89.0867 301.245 86.5581C303.819 79.7429 306.181 72.9757 309.066 66.2331C311.889 59.637 315.416 53.1142 317.358 46.3235C317.798 44.7879 318.142 43.3399 318.843 41.8652C319.19 41.1359 319.59 39.7249 320.219 39.1239C320.718 38.6472 321.248 37.8324 321.432 37.1994C321.923 35.5111 326.366 36.3032 328.004 36.4655C334.376 37.0972 340.741 37.645 347.123 38.127C350.084 38.3506 353.035 39.0685 356.012 39.0685C357.947 39.0685 359.943 39.1548 361.86 39.3177C363.034 39.4175 358.58 45.9643 358.348 46.3511C354.111 53.4056 351.113 61.0806 348.01 68.4622C345.916 73.4441 344.333 78.3358 341.673 83.166C340.093 86.0356 338.472 88.8548 336.839 91.7086C335.514 94.0244 333.786 96.1267 332.856 98.5759C331.976 100.894 330.662 103.076 329.76 105.374C329.04 107.209 327.598 109.055 327.334 110.968C327.175 112.126 326.093 113.228 326.013 114.332C325.919 115.619 319.206 115.08 318.119 115.08C303.694 115.08 289.279 114.83 274.866 114.83C271.58 114.83 268.429 114.123 265.144 114.083C262.69 114.052 260.314 114.141 257.902 113.834" stroke="white" stroke-width="5" stroke-linecap="round"/>
<path d="M385.814 36.9525C385.814 41.4431 384.503 45.8726 384.503 50.399C384.503 57.4332 384.503 64.4674 384.503 71.5016C384.503 75.0947 384.503 78.6878 384.503 82.2809C384.503 85.6203 383.556 88.8264 382.864 92.1205C381.584 98.2231 379.842 104.307 377.475 110.21C376.844 111.785 376.793 113.476 376.146 115.047C376.046 115.291 375.686 116.096 376.383 115.89C378.258 115.337 379.992 114.514 381.881 113.969C386.105 112.751 391.198 112.822 395.645 112.822C400.979 112.822 406.458 112.548 411.776 112.878C414.525 113.048 417.386 113.232 420.151 113.071C421.704 112.98 420.871 102.818 420.879 101.822C420.923 96.1727 421.534 90.4669 421.534 84.8375C421.534 84.0083 421.534 83.1792 421.534 82.35C421.534 80.3476 421.614 81.6876 423.027 82.7093C435.503 91.7283 446.751 101.628 458.238 111.316C459.563 112.434 460.809 113.572 462.244 114.619C463.542 115.567 464.797 115.31 466.577 115.31C474.83 115.31 483.084 115.31 491.337 115.31C492.744 115.31 494.199 115.393 495.597 115.296C497.397 115.172 499.157 114.564 501.023 114.564C504.069 114.564 507.116 114.564 510.162 114.564C511.843 114.564 512.928 114.682 511.328 113.265C509.421 111.576 506.951 110.369 504.773 108.898C502.349 107.259 499.872 105.801 497.236 104.365C491.27 101.114 485.324 97.8329 479.285 94.6633C475.71 92.7873 473.133 90.2129 470.364 87.7535C468.938 86.4879 467.177 85.616 465.921 84.2295C464.445 82.5998 462.07 81.1943 460.059 79.973C457.779 78.5887 455.462 77.1267 453.068 75.8686C451.772 75.1878 450.614 74.4044 449.39 73.6298C448.451 73.0361 447.728 72.2399 446.768 71.6674C446.325 71.4029 445.741 71.2976 445.457 70.9211C445.041 70.3678 442.77 70.2079 442.053 69.6636C441.43 69.1911 448.627 65.1724 449.408 64.6885C457.278 59.8152 465.154 54.9949 472.985 50.0811C476.059 48.1524 479.221 46.3497 482.088 44.2216C483.815 42.9399 485.83 41.4899 487.805 40.435C489.066 39.7617 490.347 39.1671 491.665 38.5555C492.296 38.2629 492.934 37.8297 493.303 37.3394C493.578 36.9744 492.255 36.9967 491.774 36.9525C486.637 36.4798 481.415 36.5927 476.281 36.068C471.339 35.5631 466.36 34.8887 461.37 34.7275C457.934 34.6165 454.468 34.7137 451.028 34.7137C449.857 34.7137 448.036 34.5335 447.096 35.2112C441.924 38.941 437.279 43.4667 431.384 46.5433C429.942 47.2958 428.662 48.6791 427.433 49.6389C425.851 50.8741 424.513 52.3082 422.918 53.5637C421.088 55.004 419.366 56.8714 417.929 58.5387C417.706 58.7976 416.291 60.123 416.291 59.7963C416.291 56.1529 416.984 52.5437 417.274 48.9064C417.569 45.2078 418.585 41.5298 418.585 37.8231C418.585 36.3741 419.467 35.7087 417.365 35.7087C409.787 35.7087 402.215 36.2062 394.662 36.2062C392.475 36.2062 388.014 35.5071 386.141 36.455" stroke="white" stroke-width="5" stroke-linecap="round"/>
<path d="M270.56 38.3342C275.073 40.8203 279.657 43.3712 284.377 45.6214C285.196 46.0119 286.089 46.3284 286.915 46.7001C287.346 46.894 287.489 47.6029 287.777 47.9466C290.035 50.6457 291.635 53.6575 293.667 56.4564C294.954 58.2281 295.457 60.2364 296.722 62.0177C297.579 63.2238 297.8 64.7045 298.539 65.9489C299.194 67.0513 299.753 68.2308 300.169 69.4008C300.516 70.3802 301.321 71.207 301.579 72.1934C302.195 74.55 304.962 76.8947 304.962 79.3248" stroke="white" stroke-width="5" stroke-linecap="round"/>
<path d="M326.922 115.924C330.365 115.014 333.554 113.728 337.17 113.728" stroke="white" stroke-width="5" stroke-linecap="round"/>
<path d="M362.039 40.5302C363.008 41.892 365.607 42.809 367.201 43.7406C368.501 44.5007 369.125 45.2166 370.03 46.1424C370.496 46.6196 368.722 48.8796 368.495 49.3291C367.07 52.1565 365.888 54.9998 364.628 57.8664C362.814 61.9917 360.393 65.9273 358.811 70.1135C358.047 72.1327 356.46 73.8752 355.55 75.8447C354.694 77.6972 353.146 79.4464 351.971 81.1954C347.912 87.234 344.527 93.639 341.742 100.042C339.779 104.557 338.435 109.267 336.437 113.728" stroke="white" stroke-width="5" stroke-linecap="round"/>
<path d="M419.15 36.1383C419.324 37.2825 423.066 39.1078 424.489 39.6601C425.556 40.0741 425.766 40.8487 427.072 41.1562C428.77 41.5565 430.466 41.723 430.073 43.0207C429.643 44.4387 428.628 45.7636 427.944 47.1179" stroke="white" stroke-width="5" stroke-linecap="round"/>
<path d="M421.346 113.728C423.222 112.891 425.104 112.165 427.1 111.495C428.447 111.043 429.93 110.67 431.187 110.087C431.91 109.752 431.959 109.742 431.959 109.083C431.959 107.495 432.261 105.845 432.427 104.259C432.81 100.594 433.057 96.9088 433.057 93.2323" stroke="white" stroke-width="5" stroke-linecap="round"/>
<path d="M512.843 114.46C513.455 113.559 514.262 112.776 514.955 111.917C515.458 111.294 515.758 110.587 516.503 110.068" stroke="white" stroke-width="5" stroke-linecap="round"/>
<path d="M493.987 38.3342C495.071 39.8621 496.104 41.5064 497.539 42.8648C497.686 43.004 499.231 44.3299 498.885 44.4828C498.005 44.8723 497.107 45.5253 496.273 46.02C494.382 47.143 492.369 48.1524 490.446 49.2471C487.622 50.855 484.774 52.6526 481.659 53.9035C479.982 54.5768 478.523 55.8258 477.108 56.78C476.097 57.4619 475.054 58.1286 474.09 58.8475C472.834 59.784 471.61 60.7121 470.283 61.5532C468.292 62.8146 465.974 63.7903 463.898 64.9511C462.229 65.8846 460.616 66.7502 458.93 67.6209C458.2 67.9978 456.647 69.0772 455.749 69.0772" stroke="white" stroke-width="5" stroke-linecap="round"/>
<path d="M444.038 69.0771C447.687 69.0771 451.361 69.0771 455.018 69.0771" stroke="white" stroke-width="5" stroke-linecap="round"/>
<path d="M456.481 69.0771C457.362 70.2269 458.103 71.0985 459.319 72.0185C460.326 72.7798 461.836 73.358 462.998 73.9971C466.4 75.8684 469.185 78.2731 472.353 80.3569C474.949 82.0643 477.013 84.0304 479.816 85.5773C481.722 86.6292 484.044 87.44 486.169 88.1918C488.429 88.9911 490.373 90.2801 492.429 91.3364C493.885 92.0842 495.04 93.2102 496.202 94.1983C497.159 95.0132 498.191 96.0544 499.378 96.6715C500.49 97.2494 502.024 98.1755 502.847 98.9681C503.332 99.4347 504.317 99.7974 504.949 100.161C505.843 100.674 506.748 101.177 507.67 101.662C509.908 102.839 511.994 104.067 513.872 105.487C514.853 106.229 516.626 106.951 517.235 107.872" stroke="white" stroke-width="5" stroke-linecap="round"/>
<path d="M545.968 83.4624C545.569 82.0651 544.893 81.6013 543.102 81.6499C542.163 81.6755 540.756 81.9599 539.946 82.2958C537.448 83.3319 537.758 85.1229 537.844 86.9598" stroke="white" stroke-width="5" stroke-linecap="round"/>
<path d="M539.026 83.9031C537.949 85.2634 537.809 86.2076 537.877 87.6591C537.905 88.2558 537.933 88.8525 537.961 89.4492C538.005 90.3844 537.717 91.3075 537.762 92.2551C537.843 93.9939 537.467 95.6826 537.508 97.429C537.568 100.058 537.525 102.755 537.255 105.375C537.114 106.744 537.383 108.12 536.987 109.479C536.84 109.984 536.743 110.587 536.528 111.066C536.401 111.349 536.414 111.856 536.166 111.202" stroke="white" stroke-width="5" stroke-linecap="round"/>
<path d="M542.858 80.7745C543.204 80.7319 543.061 80.6102 543.28 80.945C543.442 81.1919 543.541 81.1063 543.655 80.8788C543.879 80.4304 543.845 80.0468 544.166 79.6047C544.244 79.4977 544.545 80.4121 544.682 80.5919C545.009 81.0201 545.654 81.4317 546.333 81.4361C547.87 81.4463 548.596 80.3749 549.941 80.0148C551.293 79.6528 551.88 81.5507 553.226 80.9338C553.621 80.7522 554.562 80.7084 555.038 80.6955C555.901 80.672 555.851 80.3021 556.109 79.7842C556.228 79.5466 556.516 79.8291 557.058 79.6043C558.056 79.1906 557.534 79.8715 558.065 79.857C558.667 79.8407 558.763 78.4182 559.051 78.1149C559.476 77.6672 560.06 77.004 560.235 76.4654C560.287 76.3066 560.284 75.6034 560.43 75.5079C560.614 75.3875 560.572 74.77 560.716 74.555C560.874 74.3195 561.553 73.4118 561.593 73.81C561.699 74.87 565.281 73.5108 566.055 73.5207C566.242 73.5231 566.566 73.7864 566.824 73.8148C567.231 73.8598 567.65 73.9254 568.063 73.9142C568.684 73.8973 568.213 74.4003 567.985 74.6165C566.903 75.6426 565.631 76.4471 564.24 77.2177C562.826 78.0003 560.974 78.3917 559.251 78.4385C559.061 78.4437 558.352 78.5655 558.325 78.3377C558.259 77.7905 558.83 77.302 559.271 76.9187C561.002 75.4166 563.166 74.4105 565.831 74.2339C566.301 74.2027 567.293 74.0463 567.745 74.2029C568.419 74.4368 568.987 75.2682 569.599 75.6368C571.51 76.7883 573.672 77.5262 574.653 79.3362C575.455 80.8139 575.934 82.2463 576.401 83.7975C576.438 83.9198 576.881 85.1872 576.852 84.5834C576.713 81.6246 576.482 78.029 572.727 76.3639C572.583 76.3002 571.309 75.9009 571.478 75.6557C571.817 75.1657 575.187 76.4817 575.576 76.6226C577.644 77.3727 579.824 78.3478 581.23 79.7595C582.629 81.1637 583.362 82.8596 584.287 84.4514C584.436 84.707 585.21 85.8685 585.194 85.715C585.044 84.3368 583.383 83.0218 582.321 81.9983C578.932 78.7334 574.738 75.7066 569.224 74.7228C568.037 74.511 570.957 76.0289 571.874 76.6392C574.458 78.3575 576.733 80.322 579.027 82.2559C580.856 83.7979 582.578 85.4186 584.244 87.0641C585.037 87.8476 585.873 88.6019 586.204 89.5803C586.546 90.5896 586.776 91.7011 587.006 92.7301C587.146 93.3552 587.655 93.9343 587.763 94.5229C587.985 95.7321 588.104 96.9898 588.396 98.1884C588.423 98.3021 588.65 99.2987 588.634 98.9591C588.552 97.1942 588.368 95.4217 588.119 93.6661C587.693 90.6706 586.806 87.6984 585.321 84.8994C584.859 84.0271 584.311 82.7329 583.454 82.0165C582.698 81.3842 583.136 83.5048 583.212 83.7244C584.385 87.1163 586.329 90.3207 587.904 93.6019C588.777 95.4208 589.378 97.1482 589.468 99.0694C589.507 99.8803 589.773 100.673 590.205 101.416C590.503 101.928 590.311 102.876 590.335 103.401C590.408 104.956 590.318 106.556 590.39 108.083C590.402 108.341 590.241 108.497 590.125 108.727C589.989 109 590.218 109.327 590.111 109.603C589.931 110.069 584.565 109.887 583.928 109.904C580.971 109.984 578.148 109.418 575.21 109.392C573.021 109.372 570.795 109.406 568.61 109.438C568.146 109.445 566.103 109.488 565.782 109.235C565.543 109.047 565.944 108.235 566.03 108.045C566.418 107.194 566.396 106.201 566.555 105.307C566.987 102.876 566.902 100.243 566.865 97.7934C566.836 95.941 566.857 94.0947 566.769 92.2369C566.655 89.7983 565.338 87.3164 564.522 84.9746C564.107 83.7858 564.091 81.5639 562.551 80.8693C561.142 80.2334 559.916 79.1316 560.957 77.9161C562.146 76.5294 565.684 79.215 566.587 79.7514C566.949 79.9658 569.645 81.627 570.146 81.3911C570.691 81.1341 568.886 79.4881 568.655 79.2681C566.514 77.2271 565.068 81.2524 564.914 82.3524C564.836 82.9118 564.678 84.178 565.916 83.8725C566.976 83.6105 568.101 82.8865 568.852 82.2734C569.52 81.7279 569.733 81.2349 569.699 80.507C569.654 79.5545 569.161 80.7624 569.082 81.1049C568.796 82.3504 568.089 88.0282 570.878 87.9524" stroke="white" stroke-width="5" stroke-linecap="round"/>
<path d="M566.023 79.8927C565.536 80.4522 563.798 79.4491 562.817 79.4757C561.031 79.5243 559.251 79.4466 557.458 79.4954C556.759 79.5144 556.06 79.5334 555.361 79.5523C553.965 79.5903 552.64 79.3743 551.247 79.4121C549.153 79.469 547.163 79.638 545.19 80.2349C544.338 80.4927 545.793 80.4425 545.991 80.4371C547.38 80.3994 548.749 80.3676 550.124 80.1988" stroke="white" stroke-width="5" stroke-linecap="round"/>
<path d="M563.204 79.8435C565.461 82.3641 568.258 85.1112 568.407 88.2717C568.432 88.8019 568.536 89.289 568.682 89.8045C568.98 90.861 568.964 91.9662 569.211 93.0388C569.695 95.1346 570.082 96.8262 569.701 98.9486C569.359 100.856 568.418 102.636 567.845 104.516C567.467 105.755 567.496 107.148 567.852 108.381C568.06 109.105 569.266 108.288 569.912 108.143C572.308 107.605 574.949 107.502 577.43 107.434C580.513 107.35 583.599 107.141 586.659 107.057C587.727 107.028 587.78 106.982 587.895 106.128C588.191 103.933 586.412 102.179 585.872 100.119C584.839 96.1798 584.941 92.0972 583.324 88.2443C582.994 87.4571 582.707 86.6563 582.347 85.8764C581.988 85.098 581.327 84.4824 580.794 83.7762C579.961 82.6748 578.97 81.4261 577.884 80.4596C576.54 79.2631 574.106 78.5118 572.393 77.6543C571.531 77.2234 570.64 76.8578 569.836 76.3586C568.984 75.8297 568.232 75.1956 567.188 74.8762C566.685 74.7226 567.131 75.7974 567.181 75.9056C567.709 77.0492 568.568 78.0728 569.213 79.176C571.279 82.7062 571.923 86.5463 573.014 90.2889C573.962 93.5373 574.589 96.8695 574.769 100.197C574.836 101.419 574.966 102.662 574.86 103.884C574.844 104.066 574.98 105.001 574.743 105.113C574.168 105.384 573.493 105.873 572.851 106.018C571.938 106.225 571.387 101.669 571.337 101.229C571.172 99.7794 570.905 98.3112 571.039 96.8538C571.1 96.196 571.301 95.5541 571.538 94.9219C571.627 94.6835 571.79 93.9682 571.836 94.2137C572.376 97.1142 570.953 100.105 571.09 103.021C571.147 104.244 569.4 105.107 568.751 106.158C568.705 106.231 568.234 106.867 568.556 106.912C569.319 107.02 570.281 106.872 571.049 106.852C572.817 106.803 574.621 106.819 576.356 106.525C578.293 106.198 580.038 105.553 581.865 104.996C583.6 104.467 585.483 104.191 587.35 104.14C587.447 104.137 587.906 104.175 587.843 104.036C587.479 103.239 585.944 102.515 585.211 101.923C583.951 100.904 582.887 99.8071 581.987 98.5867C580.326 96.3336 579.936 93.7128 579.32 91.2097C578.563 88.1347 578.369 85.0976 578.223 81.9837C578.219 81.9031 578.186 80.8598 577.937 81.3964C576.969 83.4878 576.845 86.0288 576.628 88.2093C576.32 91.3054 576.444 94.4155 576.632 97.514C576.737 99.2341 577.172 100.837 577.951 102.449C578.193 102.949 578.04 101.188 578.013 101.019C577.651 98.737 576.397 96.6185 575.84 94.3709C575.07 91.2645 574.916 88.0838 574.256 84.9621C574.079 84.1286 573.9 83.3008 573.779 82.4616C573.725 82.0883 573.82 81.0276 573.561 81.3473C573.466 81.4642 573.531 82.3183 573.526 82.3774C573.416 83.715 573.171 85.0501 572.885 86.3716C572.215 89.477 571.068 92.4965 570.316 95.5852C570.214 96.0068 569.828 97.479 570.114 96.1719C570.64 93.7676 570.952 91.3241 570.987 88.8877C571.022 86.4621 570.86 84.0363 570.746 81.6128C570.692 80.4591 570.477 79.2332 570.709 78.0852C570.882 77.2313 570.971 79.8014 571.125 80.6574C571.405 82.2235 571.635 84.105 572.914 85.4187C573.212 85.725 573.79 86.235 574.361 86.2195C575.002 86.2021 574.689 84.389 574.676 84.1175C574.611 82.7215 574.331 81.4618 573.698 80.1463C573.693 80.1361 573.176 79.1914 573.156 79.2089C572.944 79.4021 573.363 80.3611 573.421 80.5319C574.866 84.7905 578.652 88.6746 581.676 92.3639C582.455 93.3133 583.227 94.2688 583.984 95.2278C584.295 95.6208 583.803 94.3581 583.764 94.2745C582.9 92.3812 582.055 90.5269 581.06 88.6699C580.825 88.2309 580.831 88.1235 580.776 88.6847C580.634 90.124 580.807 91.6262 581.146 93.0434C581.241 93.4387 581.604 94.245 581.575 93.3469C581.531 91.9687 581.344 90.6514 580.852 89.3197C580.453 88.2424 580.013 87.1737 579.513 86.1215C579.418 85.9215 579.406 85.9154 579.413 86.1522C579.439 86.9967 579.491 87.8394 579.496 88.6845C579.51 91.0531 579.549 93.4187 579.71 95.785C579.792 96.9974 580.145 98.189 580.202 99.3983C580.23 99.9831 580.586 100.507 580.537 99.4802C580.529 99.2968 580.347 97.8312 580.204 98.061C579.371 99.3923 579.241 101.196 578.881 102.634C578.698 103.362 578.693 104.105 578.505 104.829C578.439 105.084 578.468 104.699 578.472 104.703C578.603 104.842 579.048 103.903 579.084 103.833C579.688 102.657 580.151 101.44 580.74 100.259C581.391 98.9508 581.965 97.6733 582.368 96.3079C582.52 95.794 582.672 94.5567 582.677 95.8234C582.686 98.249 581.472 101.398 583.346 103.591C583.75 104.063 583.878 103.548 584.028 103.201C584.436 102.256 584.574 101.118 584.528 100.128C584.523 100.021 584.244 98.6603 584.185 98.709C583.39 99.3578 583.138 100.751 582.79 101.561C582.468 102.312 582.26 103.07 581.994 103.83C581.818 104.335 581.892 104.139 581.98 103.726C582.049 103.404 582.268 102.872 582.681 102.755" stroke="white" stroke-width="5" stroke-linecap="round"/>
<path d="M561.866 72.5703C561.788 73.2446 560.113 71.9145 559.924 71.811C559.177 71.4005 557.946 72.1415 557.207 72.1929C556.464 72.2445 555.932 72.8112 555.143 72.564C554.165 72.2576 553.07 72.3345 553.021 71.2984C552.995 70.7382 552.893 70.1505 553.024 69.597C553.221 68.7678 553.298 68.7704 554.485 68.7382C557.145 68.6659 561.719 67.6179 563.519 69.7249C564.21 70.5338 564.305 71.5631 564.349 72.4958C564.391 73.3835 563.706 73.4949 562.741 73.7438C561.072 74.1745 559.168 74.282 557.418 74.3295C556.273 74.3607 556.048 74.1028 555.279 73.4985C553.242 71.8962 554.187 69.7822 557.115 69.4508C557.445 69.4135 560.195 69.1452 560.213 69.5347C560.229 69.8617 559.642 70.1936 559.408 70.4247C559.023 70.8058 558.615 71.2838 558.532 71.7718C558.32 73.0119 561.146 72.842 562.172 72.8141C563.011 72.7913 566.199 72.5143 564.884 71.3261C564.018 70.5441 562.557 70.1481 561.252 70.0736C560.385 70.0241 560.467 70.6135 561.133 70.8749C562.258 71.3167 561.47 70.9274 560.712 70.7393C559.123 70.3453 557.056 70.3904 555.566 70.9772C554.783 71.2859 556.28 71.0838 556.593 71.0753C557.828 71.0418 559.064 71.0082 560.299 70.9746C561.131 70.952 561.553 71.0392 562.339 71.2692C562.835 71.4142 564.389 71.5874 564.497 72.1207C564.67 72.974 565.386 73.7024 565.769 74.4807" stroke="white" stroke-width="5" stroke-linecap="round"/>
<path d="M575.638 109.99C575.69 110.081 577.457 113.336 576.373 113.365C574.468 113.417 572.579 113.359 570.677 113.411C570.278 113.422 568.991 113.364 570.073 113.512C571.392 113.693 572.665 113.795 574.014 113.758C575.3 113.723 576.519 113.471 577.817 113.436" stroke="white" stroke-width="5" stroke-linecap="round"/>
<path d="M584.593 110.513C584.768 111.627 584.753 112.686 584.747 113.771C584.745 114.112 581.987 113.734 581.647 113.715C580.342 113.64 579.122 113.51 577.821 113.545" stroke="white" stroke-width="5" stroke-linecap="round"/>
<path d="M160.763 110.068C183.387 110.068 206.099 110.068 228.715 110.068C233.349 110.068 237.978 110.068 242.615 110.068C243.798 110.068 244.903 110.068 246.06 110.068C246.64 110.068 249.105 110.068 249.332 110.068" stroke="white" stroke-width="5" stroke-linecap="round"/>
<path d="M212.002 59.5615C218.474 66.4594 224.506 73.3959 230.058 80.7512C233.593 85.435 237.471 89.9018 241.451 94.3671C243.267 96.4043 245.377 98.2938 246.94 100.456C247.265 100.907 247.869 101.481 247.869 102.016" stroke="white" stroke-width="5" stroke-linecap="round"/>
<path d="M183.455 80.0568C185.92 80.9448 188.443 81.78 190.827 82.7914C194.139 84.1964 197.146 85.6681 200.211 87.3617C205.84 90.4723 211.35 93.6349 217.224 96.4836C219.068 97.3775 220.941 98.2374 222.805 99.1059C224.603 99.9433 226.477 100.982 228.448 101.56C230.939 102.29 233.417 103.05 235.906 103.789C238.141 104.452 240.371 105.11 242.615 105.765C243.767 106.101 245.22 106.86 246.491 106.86C246.946 106.86 247.521 107.182 247.926 107.329C248.756 107.629 249.881 107.872 250.797 107.872" stroke="white" stroke-width="5" stroke-linecap="round"/>
<path d="M192.494 84.4487C195.293 87.6359 196.541 90.8834 195.574 94.7066C194.41 99.3085 190.982 103.787 186.285 106.762C183.68 108.413 180.473 109.58 177.363 110.472C175.818 110.915 174.094 111.532 172.475 111.532" stroke="white" stroke-width="5" stroke-linecap="round"/>
<path d="M192.238 83.581C196.218 83.581 200.776 84.0506 204.651 83.2424C208.844 82.3679 213.024 81.0329 215.665 78.3331C216.477 77.5031 216.977 76.5894 217.638 75.6998C218.404 74.6701 219.36 73.4374 219.886 72.3329C220.542 70.9553 220.785 69.8103 220.785 68.3452" stroke="white" stroke-width="5" stroke-linecap="round"/>
<path d="M212.734 93.101C215.116 93.5544 216.832 94.3273 219.331 93.7701C222.188 93.1334 225.24 92.3533 227.66 90.9897C229.464 89.9738 231.263 88.9319 232.202 87.3422C232.653 86.579 233.23 85.2843 233.23 84.4487" stroke="white" stroke-width="5" stroke-linecap="round"/>
<path d="M214.215 93.9644C214.676 95.4733 216.082 96.9759 216.258 98.4964C216.382 99.5661 216.503 100.983 216.22 102.04C215.895 103.259 214.699 104.704 213.645 105.67C212.646 106.584 211.979 107.529 210.79 108.33C209.763 109.022 208.17 109.707 206.92 110.116C205.82 110.477 204.799 110.984 203.71 111.371C201.751 112.065 198.776 112.264 196.63 112.264" stroke="white" stroke-width="5" stroke-linecap="round"/>
<path d="M241.281 96.1603C239.987 98.4739 237.63 101.624 234.162 102.392C232.838 102.685 230.951 102.748 229.569 102.748" stroke="white" stroke-width="5" stroke-linecap="round"/>
<path d="M229.569 102.748C231.66 104.135 233.229 106.462 233.229 108.621C233.229 109.836 231.894 111.851 230.256 112.264" stroke="white" stroke-width="5" stroke-linecap="round"/>
<path d="M222.249 69.2577C223.221 69.6868 224.245 70.2194 225.347 70.4141C226.599 70.6352 228.006 70.5003 229.279 70.5003C231.53 70.5003 233.638 70.5379 235.71 69.7237C236.658 69.3512 237.43 68.614 238.295 68.1014C238.993 67.6879 239.558 67.2447 240.24 66.7725C241.374 65.987 242.719 65.3211 243.007 64.0456C243.21 63.1436 243.839 61.4702 244.94 61.0254" stroke="white" stroke-width="5" stroke-linecap="round"/>
<path d="M233.961 84.1923C236.55 84.6363 239.008 84.4754 241.544 83.9255C243.171 83.5728 244.599 83.1134 245.357 81.9911C245.791 81.3485 246.093 80.7181 246.405 80.0568" stroke="white" stroke-width="5" stroke-linecap="round"/>
<path d="M242.013 93.9644C242.933 93.8066 244.18 93.9349 244.958 93.4764C246.118 92.7922 246.309 91.9149 247.137 91.0365" stroke="white" stroke-width="5" stroke-linecap="round"/>
<path d="M212.734 59.2576C217.919 60.186 224.147 61.0285 229.168 59.2576C232.496 58.0837 236.097 57.1222 237.984 54.5974C238.365 54.0887 238.719 53.5526 239.122 53.0544C239.456 52.6405 240.069 52.1745 240.301 51.7517C240.608 51.1917 241.281 50.6692 241.281 50.0458" stroke="white" stroke-width="5" stroke-linecap="round"/>
<path d="M184.187 80.0568C187.035 78.9913 190.134 78.3403 192.919 77.1786C195.709 76.015 197.97 74.2388 200.334 72.6557C203.592 70.4747 207.948 68.424 209.481 65.1756C209.823 64.4512 210.003 63.668 210.415 62.9695C210.737 62.4228 211.068 61.7314 211.068 61.1271C211.068 60.5715 212.002 60.161 212.002 59.5615" stroke="white" stroke-width="5" stroke-linecap="round"/>
<path d="M158.567 110.068C162.684 109.299 165.862 107.559 169.173 105.598C172.407 103.684 175.12 101.79 177.117 99.0624C178.482 97.1991 180.211 95.8867 182.063 94.3286C183.32 93.2708 185.261 91.4029 185.461 89.8831C185.541 89.2747 185.65 88.6889 185.65 88.0409C185.65 86.9495 185.251 86.2111 184.893 85.1894C184.471 83.9859 184.514 82.7577 184.514 81.5209" stroke="white" stroke-width="5" stroke-linecap="round"/>
<path d="M258.116 41.9941C258.876 41.9941 259.62 41.9941 260.312 41.9941" stroke="white" stroke-width="5" stroke-linecap="round"/>
<path d="M343.757 44.1901C345.443 44.1901 347.241 44.5941 348.881 44.922" stroke="white" stroke-width="5" stroke-linecap="round"/>
<path d="M471.853 40.5302C472.907 40.5302 473.779 40.5302 474.78 40.5302" stroke="white" stroke-width="5" stroke-linecap="round"/>
<path d="M405.243 41.9941H408.171" stroke="white" stroke-width="5" stroke-linecap="round"/>
</svg>
