<svg width="1441" height="281" viewBox="0 0 1441 281" fill="none" xmlns="http://www.w3.org/2000/svg">
<g clip-path="url(#clip0_2008_222)">
<path d="M10.5003 101.13C7.12861 99.2686 3.79996 97.3932 0.5 95.5036C12.8103 76.4652 28.7361 53.8466 50.7311 27.7612C54.6336 28.088 58.5649 28.4148 62.4818 28.7416C56.0684 57.8247 53.8015 90.2893 59.067 125.936C55.394 124.189 51.7354 122.427 48.1198 120.651C44.5616 92.7615 45.6663 66.9603 49.6119 43.3329C49.4398 43.3045 49.2676 43.276 49.0954 43.2476C32.7248 64.7723 20.2997 84.0948 10.486 101.116L10.5003 101.13ZM19.6684 72.5865C30.5583 76.6499 41.7064 80.6281 53.0841 84.5068C52.0654 88.3145 51.1328 92.1221 50.3006 95.9298C38.8656 91.4402 27.6744 86.8369 16.8133 82.1341C17.6885 78.9516 18.6498 75.7691 19.6684 72.5723V72.5865Z" fill="#212529"/>
<path d="M69.0671 130.625C71.6066 97.6064 80.8608 64.5735 96.7293 31.5264C110.933 32.6488 125.224 33.7286 139.614 34.7941C137.419 39.7953 135.367 44.7964 133.445 49.7833C122.598 48.462 111.809 47.1122 101.105 45.7341C97.1884 55.1396 93.788 64.5451 90.9042 73.9364C95.9402 75.1298 100.991 76.309 106.084 77.4741C111.149 78.6391 115.094 80.9408 117.964 84.5211C120.848 88.1015 122.641 92.7332 123.516 98.3736C124.392 104.014 124.291 110.422 123.373 117.44C122.455 124.459 120.934 130.341 118.609 134.93C116.285 139.533 113.272 142.531 109.413 143.924C105.567 145.316 100.962 144.79 95.6102 142.474C86.6286 138.581 77.7617 134.632 69.0527 130.597L69.0671 130.625ZM80.7891 122.37C85.9686 124.487 91.2055 126.59 96.4711 128.664C99.5128 129.858 102.167 129.943 104.448 128.849C106.73 127.755 108.566 125.866 109.987 123.18C111.421 120.495 112.368 117.369 112.885 113.846C113.631 108.717 113.215 103.929 111.55 99.5813C109.9 95.2337 106.916 92.52 102.483 91.3124C97.375 89.9058 92.2959 88.4708 87.2455 87.0217C84.2612 98.7999 82.1091 110.592 80.7891 122.37Z" fill="#212529"/>
<path d="M203.59 86.2262C199.974 85.6295 196.359 85.0328 192.743 84.4219C193.374 79.847 193.604 75.7694 193.403 72.2032C193.202 68.6371 192.671 65.5824 191.753 63.0251C190.835 60.4677 189.587 58.507 187.98 57.1004C186.358 55.6939 184.45 54.884 182.212 54.6425C178.18 54.2021 173.905 55.7223 169.5 59.0469C165.11 62.3857 160.863 67.4294 157.046 74.1781C153.23 80.9268 150.131 89.2809 148.179 99.3826C146.214 109.569 146.013 118.407 147.189 126.036C148.38 133.666 150.719 139.903 153.933 144.705C157.161 149.507 160.963 152.704 165.181 154.139C167.52 154.935 169.758 155.119 171.867 154.651C173.991 154.196 175.899 153.088 177.649 151.326C179.386 149.564 180.906 147.177 182.212 144.151C183.532 141.125 184.536 137.459 185.311 133.168C189.027 134.206 192.743 135.229 196.474 136.252C195.441 143.057 194.106 149.124 192.356 154.381C190.605 159.637 188.496 163.886 185.914 167.096C183.331 170.307 180.39 172.368 176.989 173.305C173.589 174.243 169.816 173.888 165.641 172.325C159.084 169.867 153.086 164.923 147.979 157.833C142.885 150.729 139.054 141.977 137.003 131.606C134.951 121.234 134.994 109.74 137.634 96.811C140.303 83.8393 144.836 72.9989 150.561 63.977C156.3 54.9551 162.785 48.0217 169.514 43.1911C176.258 38.3747 182.772 36.002 188.798 36.3714C192.514 36.5987 195.584 37.8206 198.037 40.108C200.491 42.3813 202.284 45.649 203.49 49.9113C204.695 54.1879 205.24 59.3737 205.254 65.4688C205.254 71.5639 204.652 78.4972 203.561 86.212L203.59 86.2262Z" fill="#212529"/>
<path d="M220.232 59.4882C222.112 53.2226 224.163 46.957 226.402 40.6914C244.623 41.828 262.931 42.9078 281.339 43.9308C279.187 50.8925 277.235 57.8543 275.485 64.8161C268.01 64.1341 260.549 63.4522 253.117 62.7418C240.979 107.567 237.363 152.35 242.614 197.118C238.741 195.882 234.867 194.632 230.993 193.367C226.158 149.508 230.06 105.635 242.371 61.7188C234.967 60.9942 227.578 60.2554 220.218 59.5024L220.232 59.4882Z" fill="#212529"/>
<path d="M279.993 208.598C272.503 153.969 277.224 99.2978 293.508 44.5981C302.002 45.0528 310.51 45.5074 319.033 45.9337C324.614 46.2178 328.559 48.8747 331.027 54.0321C333.495 59.1752 334.686 66.1512 334.858 74.9458C335.03 83.7262 334.342 93.5721 332.964 104.398C331.587 115.267 329.822 124.914 327.383 133.24C324.958 141.566 321.902 147.86 317.957 152.094C314.025 156.328 309.176 157.805 303.336 156.612C297.181 155.361 291.026 154.083 284.9 152.776C285 145.7 285.301 138.611 285.789 131.521C291.528 132.572 297.267 133.595 303.021 134.604C306.694 135.243 309.75 134.306 312.217 131.734C314.7 129.162 316.651 125.383 318.186 120.396C319.721 115.409 320.883 109.613 321.759 103.034C322.634 96.4563 323.036 90.5601 322.878 85.3601C322.72 80.16 321.873 76.0256 320.223 72.9709C318.588 69.9163 315.977 68.254 312.347 67.9556C307.77 67.572 303.207 67.1884 298.645 66.8048C287.296 115.253 284.828 163.673 291.686 212.05C287.783 210.928 283.881 209.777 279.978 208.626L279.993 208.598Z" fill="#212529"/>
<path d="M346.421 226.954C342.288 225.888 338.156 224.823 334.024 223.729C334.268 167.352 346.392 108.817 369.463 48.3345C373.667 48.5192 377.856 48.7039 382.074 48.8886C376.737 111.047 383.825 174.982 403.022 240.522C398.918 239.613 394.815 238.675 390.712 237.737C375.36 184.743 368.258 132.813 369.491 82.0636C369.305 82.0494 369.104 82.0352 368.918 82.0209C353.81 131.62 346.134 179.969 346.435 226.968L346.421 226.954ZM343.192 157.137C356.277 159.439 369.377 161.641 382.505 163.715C382.577 171.657 382.82 179.614 383.265 187.556C370.051 185.155 356.851 182.612 343.666 179.94C343.307 172.339 343.149 164.738 343.178 157.123L343.192 157.137Z" fill="#212529"/>
<path d="M459.321 252.087C446.408 220.589 435.562 189.616 427.125 159.24C424.442 158.899 421.745 158.544 419.062 158.189C418.961 187.272 421.128 216.341 425.604 245.395C421.759 244.586 417.914 243.776 414.055 242.938C404.04 178.775 405.805 114.585 418.603 50.3662C422.261 50.5083 425.92 50.6504 429.564 50.7782C424.327 78.1849 421.013 105.592 419.693 132.998C420.927 133.14 422.175 133.268 423.409 133.41C434.184 106.956 446.738 79.7335 460.684 51.8722C465.161 52.0143 469.637 52.1706 474.114 52.2985C459.565 82.1773 446.509 111.346 435.433 139.718C444.615 177.184 457.456 215.545 473.267 254.645C468.619 253.806 463.97 252.954 459.307 252.087H459.321Z" fill="#212529"/>
<path d="M478.246 78.9517C479.279 70.1429 480.47 61.3483 481.833 52.5396C500.686 53.1079 519.567 53.6193 538.492 54.0598C537.43 63.1953 536.512 72.3167 535.708 81.4522C527.975 81.1539 520.241 80.8555 512.508 80.5287C506.554 140.869 507.214 201.209 514.904 261.535C511.145 260.967 507.371 260.384 503.598 259.773C495.678 199.873 495.061 139.96 501.331 80.0457C493.626 79.7047 485.922 79.3353 478.231 78.9659L478.246 78.9517Z" fill="#212529"/>
<path d="M550.99 266.552C543.171 195.826 543.357 125.1 550.99 54.3457C554.678 54.4309 558.379 54.502 562.067 54.573C558.953 85.489 557.174 116.391 556.758 147.293C569.384 148.074 582.01 148.756 594.636 149.367C594.908 117.996 596.286 86.6114 598.696 55.2266C602.412 55.2834 606.114 55.3402 609.83 55.3971C604.751 127.885 604.779 200.358 610.332 272.832C606.616 272.519 602.886 272.192 599.155 271.837C596.53 240.353 595.052 208.883 594.664 177.399C582.024 176.674 569.384 175.85 556.744 174.912C557.16 205.928 558.953 236.929 562.21 267.93C558.465 267.49 554.721 267.021 550.976 266.552H550.99Z" fill="#212529"/>
<path d="M630.976 144.023C637.806 144.251 644.635 144.45 651.465 144.62C657.103 144.762 661.895 147.518 665.841 152.917C669.787 158.316 672.814 165.875 674.937 175.621C677.075 185.368 678.18 196.819 678.323 209.975C678.51 223.132 677.692 234.711 675.884 244.713C674.062 254.716 671.35 262.473 667.721 268C664.091 273.512 659.585 276.141 654.148 275.857C644.994 275.374 635.811 274.805 626.629 274.137C621.808 201.309 621.751 128.48 626.112 55.6514C629.828 55.694 633.544 55.7366 637.26 55.7792C633.889 119.558 633.516 183.322 636.328 247.086C641.88 247.399 647.433 247.683 652.971 247.938C656.199 248.081 658.854 246.333 660.977 242.696C663.086 239.059 664.664 234.271 665.683 228.36C666.716 222.45 667.175 216.071 667.075 209.251C666.917 199.348 665.525 190.781 662.857 183.578C660.174 176.374 656.4 172.709 651.465 172.552C644.635 172.339 637.791 172.112 630.948 171.842C630.89 162.579 630.919 153.315 631.005 144.052L630.976 144.023ZM697.391 56.1771C696.244 129.915 696.272 203.653 697.592 277.377C693.905 277.306 690.203 277.221 686.516 277.121C684.636 203.454 684.579 129.801 686.243 56.1344C689.959 56.1486 693.675 56.1628 697.406 56.1771H697.391Z" fill="#212529"/>
<path d="M713.594 56.2053C717.267 56.2053 720.94 56.2053 724.613 56.2053C724.684 110.408 724.699 164.596 724.656 218.798C724.885 218.798 725.115 218.798 725.359 218.798C738.2 164.582 751.644 110.237 762.806 56.1059C766.235 56.0917 769.664 56.0633 773.093 56.049C775.375 129.588 775.317 203.127 772.72 276.666C769.033 276.808 765.346 276.936 761.673 277.036C763.165 223.032 763.581 169.014 763.007 115.011C762.777 115.011 762.534 115.011 762.304 115.011C750.08 169.171 736.277 223.473 723.852 277.604C720.466 277.604 717.066 277.604 713.68 277.576C713.206 203.781 713.192 129.986 713.608 56.1911L713.594 56.2053ZM749.205 -0.00034564C752.031 -0.00034564 754.857 -0.00034564 757.67 -0.00034564C758.086 12.1614 756.995 22.0358 754.37 29.6227C751.744 37.2238 747.971 41.0315 743.15 41.0315C738.358 41.0315 734.484 37.238 731.629 29.6369C728.773 22.0358 727.353 12.1472 727.296 -0.0429688C730.108 -0.0429688 732.92 -0.0429688 735.732 -0.0429688C735.804 5.35596 736.363 10.1297 737.439 14.2784C738.516 18.427 740.309 20.4872 742.82 20.4872C745.273 20.4872 746.995 18.427 747.971 14.321C748.932 10.215 749.348 5.427 749.205 -0.0429688V-0.00034564Z" fill="#212529"/>
<path d="M844.297 80.3016C848.774 80.2022 853.25 80.0885 857.727 79.9749C863.394 79.8328 868.688 83.2853 873.552 90.3039C878.416 97.3225 882.491 107.168 885.547 119.87C888.588 132.572 890.238 147.362 890.195 164.298C890.138 181.091 888.402 195.938 885.274 208.881C882.132 221.825 877.971 232.111 873.021 239.698C868.071 247.285 862.72 251.377 857.038 251.888C852.547 252.3 848.071 252.684 843.594 253.053C837.913 253.522 833.12 250.325 829.06 243.42C825 236.53 821.958 226.655 819.806 213.84C817.639 201.025 816.664 185.936 816.721 168.631C816.793 151.184 817.898 135.811 820.179 122.584C822.46 109.342 825.588 99.0274 829.691 91.611C833.809 84.1946 838.63 80.4437 844.312 80.3158L844.297 80.3016ZM845.632 108.575C841.7 108.703 838.443 111.161 835.803 115.963C833.164 120.765 831.198 127.585 829.864 136.45C828.515 145.302 827.869 155.887 827.812 168.176C827.769 180.182 828.343 190.454 829.634 199.007C830.925 207.546 832.834 214.053 835.445 218.514C838.042 222.975 841.27 225.064 845.172 224.78C849.721 224.453 854.254 224.112 858.803 223.743C862.705 223.43 866.163 220.858 869.162 216.042C872.146 211.226 874.571 204.491 876.307 195.824C878.043 187.158 879.004 176.914 879.047 165.051C879.09 153.13 878.201 142.901 876.522 134.362C874.843 125.823 872.476 119.273 869.535 114.727C866.579 110.195 863.15 107.978 859.248 108.12C854.714 108.291 850.165 108.447 845.632 108.589V108.575ZM854.427 51.3037C860.912 127.514 860.797 203.724 853.508 279.92C849.879 280.289 846.249 280.645 842.633 280.985C849.405 204.491 849.534 127.983 843.58 51.46C847.195 51.4032 850.811 51.3605 854.441 51.3037H854.427Z" fill="#212529"/>
<path d="M898.575 266.011C906.524 195.442 906.308 124.858 898.518 54.2597C913.855 53.9187 929.164 53.5351 944.459 53.1089C945.721 62.0313 946.826 70.9538 947.773 79.8762C935.994 80.4161 924.2 80.8992 912.392 81.3538C914.271 102.736 915.419 124.119 915.778 145.502C926.998 144.692 938.203 143.825 949.394 142.887C949.609 151.796 949.652 160.69 949.552 169.598C938.318 170.734 927.069 171.786 915.835 172.752C915.548 194.234 914.486 215.716 912.636 237.198C924.759 235.72 936.912 234.115 949.079 232.367C948.218 241.29 947.185 250.198 945.994 259.121C930.111 261.692 914.3 264.008 898.575 266.04V266.011Z" fill="#212529"/>
<path d="M1028.55 113.704C1024.75 114.059 1020.95 114.414 1017.15 114.77C1016.21 108.433 1014.85 102.892 1013.14 98.1182C1011.43 93.3586 1009.5 89.3236 1007.36 86.0274C1005.22 82.7455 1002.97 80.2733 1000.63 78.6536C998.293 77.034 995.94 76.281 993.587 76.4088C989.325 76.6361 985.925 79.7192 983.228 85.7433C980.516 91.7673 978.751 100.505 977.603 111.971C976.456 123.436 976.169 137.388 976.341 153.756C976.499 170.251 977.058 184.061 978.464 195.114C979.87 206.168 981.879 214.295 984.82 219.509C987.761 224.709 991.334 226.911 995.681 226.172C998.092 225.76 1000.47 224.496 1002.83 222.421C1005.18 220.333 1007.4 217.477 1009.47 213.84C1011.54 210.203 1013.39 205.869 1014.95 200.854C1016.51 195.825 1017.7 190.17 1018.42 183.847C1022.28 183.293 1026.16 182.739 1030.02 182.171C1029.01 191.79 1027.22 200.755 1024.74 209.08C1022.25 217.406 1019.2 224.737 1015.68 231.102C1012.18 237.453 1008.36 242.611 1004.35 246.518C1000.32 250.425 996.198 252.812 992.023 253.621C985.437 254.9 980.243 251.888 976.183 244.472C972.108 237.055 969.439 225.718 967.617 210.487C965.781 195.256 965.135 176.687 964.963 154.949C964.777 133.14 965.135 114.258 966.67 98.4592C968.206 82.6602 970.573 70.5126 974.332 62.0022C978.077 53.4918 982.926 49.2153 989.211 49.0164C993.07 48.8885 996.944 50.2809 1000.85 53.1508C1004.73 56.0208 1008.52 60.2405 1012.15 65.8241C1015.77 71.3935 1019.07 78.1848 1021.92 86.1979C1024.76 94.2111 1027.03 103.389 1028.54 113.732L1028.55 113.704Z" fill="#212529"/>
<path d="M1033.79 75.2306C1032.5 66.9049 1031 58.5934 1029.33 50.2677C1048.06 49.5431 1066.74 48.7475 1085.37 47.895C1087.28 55.7093 1088.98 63.5235 1090.49 71.3377C1082.9 71.906 1075.29 72.4459 1067.69 72.9716C1077.25 126.748 1078.02 180.496 1069.54 234.229C1065.68 235.153 1061.81 236.062 1057.95 236.957C1066.54 182.57 1065.94 128.169 1056.67 73.7246C1049.05 74.2361 1041.43 74.7334 1033.79 75.2164V75.2306Z" fill="#212529"/>
<path d="M1097.66 47.3258C1101.25 47.1553 1104.84 46.9848 1108.42 46.8143C1119.66 89.6932 1124.55 132.544 1122.86 175.366C1123.09 175.309 1123.33 175.266 1123.56 175.209C1138.17 129.659 1145.35 86.1413 1145.6 44.9105C1148.93 44.74 1152.26 44.5553 1155.58 44.3706C1171.96 98.7435 1176.76 153.074 1169.42 207.376C1165.51 208.541 1161.61 209.691 1157.71 210.828C1163.39 170.308 1162.47 129.759 1155.21 89.1959C1154.98 89.2243 1154.77 89.2527 1154.54 89.2812C1149.47 131.379 1137.26 175.735 1117.61 222.038C1114 223.004 1110.42 223.956 1106.83 224.894C1115.96 165.733 1112.67 106.544 1097.68 47.3116L1097.66 47.3258Z" fill="#212529"/>
<path d="M1186.45 202.218C1193.15 149.366 1187.9 96.4561 1171.25 43.5182C1179.95 43.0209 1188.63 42.5236 1197.28 42.0122C1202.31 41.7138 1207.08 43.2198 1211.53 46.4166C1215.96 49.6133 1219.93 53.9893 1223.29 59.5729C1226.65 65.1565 1229.25 71.4789 1230.98 78.6254C1232.43 84.6495 1232.95 89.7927 1232.65 94.1118C1232.34 98.431 1231.43 102.011 1229.98 104.867C1228.53 107.723 1226.75 109.953 1224.68 111.559C1224.75 112.042 1224.81 112.525 1224.88 113.008C1227.32 112.767 1229.91 113.861 1232.57 116.233C1235.24 118.62 1237.62 122.243 1239.63 127.088C1241.63 131.933 1242.86 138.042 1243.12 145.458C1243.36 152.79 1242.44 159.624 1240.46 166.031C1238.47 172.439 1235.36 177.994 1231.27 182.711C1227.18 187.428 1222.07 190.838 1216.1 192.799C1206.25 196.024 1196.36 199.178 1186.47 202.232L1186.45 202.218ZM1197.45 110.28C1202.37 109.414 1207.28 108.533 1212.19 107.638C1214.65 107.183 1216.72 105.791 1218.38 103.489C1220.03 101.187 1221.15 98.1894 1221.66 94.4954C1222.16 90.8014 1221.9 86.5959 1220.82 81.8364C1219.43 75.727 1217.08 70.7544 1213.89 66.8188C1210.69 62.8975 1206.92 61.0931 1202.66 61.5051C1197.77 61.974 1192.86 62.4428 1187.94 62.9117C1192.17 78.7107 1195.36 94.4954 1197.48 110.28H1197.45ZM1199.96 178.449C1205.49 176.857 1211.01 175.252 1216.52 173.618C1222 171.984 1226.05 168.702 1228.48 163.886C1230.94 159.055 1232.13 153.599 1231.96 147.433C1231.83 142.802 1231.02 138.696 1229.59 135.101C1228.15 131.507 1226.23 128.793 1223.86 126.946C1221.5 125.113 1218.81 124.488 1215.86 125.127C1210.41 126.306 1204.93 127.457 1199.45 128.594C1200.81 145.217 1200.99 161.826 1199.96 178.435V178.449Z" fill="#212529"/>
<path d="M1262.15 176.986C1258.08 178.45 1254.01 179.885 1249.92 181.32C1263.01 131.039 1263.85 83.329 1254.91 38.3616C1258.99 38.0917 1263.05 37.8075 1267.11 37.5376C1292.79 80.0044 1308.85 119.559 1317.27 156.044C1313.32 157.635 1309.36 159.198 1305.39 160.761C1299.25 129.66 1287.71 96.6132 1269.81 61.7191C1269.62 61.7475 1269.45 61.7617 1269.26 61.7902C1273.95 98.4318 1272.04 136.864 1262.16 176.972L1262.15 176.986ZM1263.15 122.599C1275.7 119.402 1288.14 116.092 1300.44 112.696C1301.21 117.982 1301.84 123.267 1302.32 128.538C1289.85 132.473 1277.24 136.295 1264.53 139.989C1264.24 134.193 1263.77 128.396 1263.15 122.585V122.599Z" fill="#212529"/>
<path d="M1322.3 154.01C1322.33 148.839 1322.2 143.667 1321.93 138.51C1322.63 138.211 1323.34 137.913 1324.04 137.614C1326.9 136.435 1329.06 134.006 1330.45 130.411C1331.85 126.802 1332.58 121.574 1332.39 114.726C1332.19 107.864 1331.2 98.9269 1328.78 87.8733C1324.83 69.9716 1319.09 52.1409 1311.6 34.3813C1326.16 33.3015 1340.63 32.1933 1355 31.0425C1370.66 63.2513 1379.94 95.446 1382.78 127.626C1379.34 129.246 1375.88 130.852 1372.39 132.443C1370.34 103.218 1363.05 73.9782 1350.63 44.7245C1342.92 45.719 1335.17 46.7136 1327.38 47.6797C1332.62 61.6743 1336.74 75.7257 1339.72 89.8198C1342.23 101.669 1343.08 111.799 1342.85 120.295C1342.61 128.791 1340.91 135.725 1338.12 141.124C1335.32 146.509 1331.04 150.458 1325.48 152.746C1324.43 153.172 1323.37 153.612 1322.32 154.039L1322.3 154.01Z" fill="#212529"/>
<path d="M1392.32 64.5742C1398.2 63.054 1404.03 61.5195 1409.8 59.9709C1414.57 58.6922 1418.96 58.5359 1422.94 59.36C1426.91 60.184 1430.34 61.8605 1433.17 64.3753C1436 66.9043 1438.06 70.1578 1439.34 74.3349C1440.64 78.4835 1440.83 82.5185 1439.96 86.6103C1439.08 90.7022 1437.19 94.5809 1434.29 98.2607C1431.39 101.926 1427.53 105.137 1422.72 107.695C1414.63 111.985 1406.34 116.205 1397.89 120.354C1394.4 90.1907 1385.08 60.0135 1370 29.8221C1373.43 29.538 1376.84 29.268 1380.25 28.9839C1393.02 54.1031 1401.73 79.2223 1406.32 104.342C1411.22 102.097 1416.07 99.8377 1420.83 97.5503C1423.61 96.2148 1425.79 94.4246 1427.37 92.2224C1428.95 90.0202 1429.97 87.6901 1430.41 85.2322C1430.84 82.7743 1430.73 80.4158 1430.06 78.1284C1429.07 74.8037 1427.07 72.3742 1424.1 70.6977C1421.12 69.0354 1417.54 68.8081 1413.4 70.1578C1407.66 72.0332 1401.85 73.8945 1395.99 75.7272C1394.86 72.019 1393.63 68.3108 1392.32 64.6026V64.5742Z" fill="#212529"/>
</g>
<defs>
<clipPath id="clip0_2008_222">
<rect width="1440" height="281" fill="white" transform="translate(0.5)"/>
</clipPath>
</defs>
</svg>
